<svg width="32" height="32" viewBox="0 0 32 32" fill="none" xmlns="http://www.w3.org/2000/svg">
<path d="M27.4933 11.2668C26.0933 5.10683 20.72 2.3335 16 2.3335C16 2.3335 16 2.3335 15.9867 2.3335C11.28 2.3335 5.89334 5.0935 4.49334 11.2535C2.93334 18.1335 7.14667 23.9602 10.96 27.6268C12.3733 28.9868 14.1867 29.6668 16 29.6668C17.8133 29.6668 19.6267 28.9868 21.0267 27.6268C24.84 23.9602 29.0533 18.1468 27.4933 11.2668ZM16 17.9468C13.68 17.9468 11.8 16.0668 11.8 13.7468C11.8 11.4268 13.68 9.54683 16 9.54683C18.32 9.54683 20.2 11.4268 20.2 13.7468C20.2 16.0668 18.32 17.9468 16 17.9468Z" fill="#D95103"/>
</svg>
