<svg width="32" height="32" viewBox="0 0 32 32" fill="none" xmlns="http://www.w3.org/2000/svg">
<path d="M16.3562 10.9668L16.3561 10.9667C15.2294 10.3185 13.8915 10.3168 12.7748 10.9682C11.6613 11.6177 10.9934 12.7821 10.9934 14.0667V18.5334C10.9934 19.8326 11.6623 20.983 12.7748 21.632C13.3335 21.9579 13.9409 22.1134 14.56 22.1134C15.1642 22.1134 15.7845 21.9587 16.3438 21.6328C16.3443 21.6325 16.3448 21.6323 16.3453 21.632L20.2094 19.4068C21.3389 18.7569 22.0067 17.591 22.0067 16.2934C22.0067 14.9943 21.3378 13.8438 20.2253 13.1949L20.2229 13.1935L16.3562 10.9668ZM3.12671 16.0001C3.12671 8.91622 8.87618 3.16675 15.96 3.16675C23.0569 3.16675 28.7934 8.9159 28.7934 16.0001C28.7934 23.0839 23.0439 28.8334 15.96 28.8334C8.87618 28.8334 3.12671 23.0839 3.12671 16.0001Z" fill="white" stroke="white"/>
</svg>
