<svg width="56" height="56" viewBox="0 0 56 56" fill="none" xmlns="http://www.w3.org/2000/svg">
<g clip-path="url(#clip0_2513_6110)">
<path d="M29.1647 0C29.9411 0.17785 30.7332 0.306249 31.4923 0.541358C34.0239 1.32476 35.9238 2.92107 37.2677 5.18627C37.4551 5.50293 37.6381 5.59403 38.0025 5.54024C43.5271 4.71953 48.8418 8.6782 49.7172 14.2505C50.6567 20.2341 46.5193 25.6737 40.5019 26.3652C40.4308 26.373 40.3605 26.3912 40.2295 26.4163C40.22 26.6037 40.2026 26.7963 40.2026 26.9889C40.2009 29.6133 40.2026 32.2377 40.2009 34.862C40.1992 36.795 39.1598 37.8343 37.2295 37.8369C36.1546 37.8386 35.0788 37.8473 34.0039 37.8334C33.2908 37.8239 32.8874 37.3328 33.0895 36.7516C33.2378 36.3247 33.571 36.192 33.9909 36.1929C35.084 36.1955 36.178 36.1963 37.2711 36.1929C38.2168 36.1894 38.5517 35.8528 38.5586 34.9071C38.5621 34.417 38.5586 33.9277 38.5586 33.395H17.7502C17.7502 34.0743 17.7051 34.7631 17.7649 35.4416C17.81 35.9448 18.2282 36.1885 18.8711 36.1911C20.2383 36.1972 21.6047 36.1929 22.972 36.1929C25.4871 36.1929 28.0021 36.1929 30.5172 36.1929C30.6994 36.1929 30.8842 36.1825 31.0629 36.2111C31.5001 36.2814 31.7509 36.5668 31.7647 36.9936C31.7777 37.3979 31.5487 37.6885 31.147 37.7892C30.9562 37.8369 30.7506 37.8343 30.551 37.8352C26.7051 37.8378 22.8601 37.8386 19.0142 37.836C17.1168 37.8352 16.0619 36.788 16.0584 34.8985C16.0541 32.2741 16.0576 29.6497 16.0576 27.0254C16.0576 26.8293 16.0576 26.6324 16.0576 26.4025C14.4751 26.2229 13.0367 25.7622 11.6911 24.9935C5.27986 21.3298 4.71681 11.9758 10.6475 7.57467C12.9821 5.84215 15.583 5.1481 18.4694 5.54978C18.7409 5.58795 18.9604 5.61745 19.1513 5.29472C20.9688 2.22529 23.653 0.46935 27.2109 0.0711399C27.2803 0.0633319 27.3471 0.0242917 27.4148 0C27.9978 0 28.5817 0 29.1647 0ZM38.5577 31.6824C38.5577 29.9976 38.5499 28.377 38.5638 26.7564C38.5664 26.4189 38.3851 26.4068 38.13 26.3478C37.2113 26.1344 36.2873 25.927 35.3937 25.6321C34.5635 25.3579 34.3076 24.912 34.5305 24.3871C34.7457 23.8813 35.1985 23.7963 35.9932 24.1078C37.888 24.8495 39.8122 24.9562 41.7738 24.3975C45.3516 23.3781 48.1018 19.9548 48.185 16.3379C48.2692 12.7019 46.633 10.0073 43.5236 8.20452C41.9074 7.26755 40.1341 6.95089 38.2211 7.16171C38.274 7.38988 38.333 7.57727 38.3599 7.769C38.4822 8.65044 38.6219 9.53015 38.7009 10.4159C38.7434 10.8887 38.4883 11.2297 37.9808 11.2731C37.4837 11.3156 37.1905 11.0562 37.1063 10.5695C37.0725 10.3725 37.0525 10.1721 37.043 9.9726C36.833 5.56887 33.1546 1.87653 28.7586 1.66051C24.2204 1.43755 20.3086 4.56597 19.5339 9.04865C19.4445 9.56659 19.4462 10.101 19.3604 10.6198C19.284 11.0796 18.9708 11.3165 18.5006 11.2731C18.0304 11.2288 17.7788 10.9365 17.7779 10.4715C17.7779 10.0351 17.7892 9.59435 17.8534 9.16404C17.9506 8.50643 18.0972 7.85662 18.2299 7.16605C17.1325 7.04979 16.081 7.06367 15.0512 7.3439C11.6035 8.28173 9.28451 10.4376 8.41782 13.9165C7.59364 17.2237 8.57485 20.1144 11.0812 22.3804C13.8461 24.8816 17.05 25.3813 20.535 24.0453C21.1926 23.7928 21.6412 23.9221 21.832 24.4045C22.0264 24.8964 21.8121 25.3466 21.1493 25.5575C20.1663 25.8698 19.1608 26.1222 18.1536 26.3461C17.8248 26.4189 17.6808 26.4979 17.6955 26.8527C17.7207 27.4895 17.7024 28.128 17.7024 28.7666C17.7024 29.7278 17.7024 30.6882 17.7024 31.6781H21.511C21.511 30.8574 21.511 30.061 21.511 29.2645C21.511 28.8203 21.6767 28.4733 22.1279 28.3432C22.6727 28.187 23.1386 28.5844 23.1499 29.2264C23.1646 30.0393 23.1533 30.853 23.1533 31.672H27.1285C27.1285 31.4386 27.1268 31.2408 27.1285 31.043C27.1354 30.3872 27.1137 29.7295 27.1597 29.0763C27.1953 28.574 27.5414 28.2903 27.9908 28.3215C28.4619 28.3536 28.7153 28.6321 28.7552 29.0928C28.7786 29.3643 28.7725 29.6385 28.7734 29.9117C28.776 30.5025 28.7734 31.0934 28.7734 31.6651H32.7668C32.7668 30.7862 32.7529 29.949 32.772 29.1127C32.7824 28.6494 33.0513 28.3631 33.5172 28.325C33.9909 28.2868 34.2711 28.5514 34.3717 28.9982C34.4108 29.1726 34.4021 29.36 34.403 29.5422C34.4065 30.2475 34.4039 30.9519 34.4039 31.6824H38.5551H38.5577Z" fill="#D95103"/>
<path d="M30.2641 49.5828C30.9078 49.9559 31.4812 50.309 32.0773 50.617C32.2152 50.6881 32.4633 50.6603 32.6099 50.5822C33.5573 50.0773 34.4908 49.5464 35.4295 49.0241C35.557 48.953 35.682 48.8758 35.8156 48.8202C36.2641 48.6346 36.697 48.7647 36.9104 49.1395C37.1386 49.5403 37.0284 49.9897 36.5712 50.2621C35.7895 50.7271 34.9862 51.1557 34.1924 51.6008C34.0206 51.6971 33.8514 51.7994 33.6866 51.8957C34.2748 53.4678 34.077 54.5401 33.0333 55.3764C32.1918 56.0513 31.2583 56.1928 30.2727 55.7304C29.8129 55.5143 29.3687 55.2584 28.9402 54.9843C28.6868 54.8229 28.4942 54.829 28.2505 54.9895C27.9321 55.1985 27.5894 55.3729 27.2554 55.5586C26.1041 56.1997 24.9529 56.0913 24.022 55.2567C23.1804 54.5028 22.9644 53.3177 23.4537 52.156C23.4815 52.0892 23.4988 52.0181 23.5448 51.8784C21.1182 50.4773 18.6847 49.0718 16.3267 47.7106C15.8539 48.114 15.4739 48.5496 14.9993 48.8211C14.0424 49.3685 13.1089 49.0979 12.211 48.5756C10.1974 47.4035 8.17425 46.2479 6.1589 45.0784C5.64444 44.78 5.4744 44.3133 5.69389 43.8968C5.92553 43.4587 6.43999 43.3485 6.97875 43.6574C8.98368 44.8078 10.9825 45.9694 12.9849 47.1259C13.9661 47.6924 14.3417 47.5883 14.9178 46.5915C15.172 46.1508 15.4236 45.7083 15.6969 45.2294C15.5155 45.1175 15.3533 45.0116 15.1859 44.9145C13.0109 43.6565 10.8359 42.4012 8.66095 41.1432C8.50392 41.0521 8.33908 40.9662 8.20287 40.8491C7.86713 40.5602 7.80466 40.1897 8.02069 39.8184C8.2237 39.4688 8.55771 39.3265 8.95765 39.4697C9.16066 39.5425 9.35413 39.6501 9.54239 39.7586C11.6879 40.994 13.8316 42.232 15.9762 43.4691C16.148 43.568 16.3232 43.6609 16.541 43.7806C16.8924 43.162 17.2593 42.5773 17.563 41.9622C17.8458 41.3887 17.6532 40.9627 16.9913 40.5784C15.0228 39.4376 13.0499 38.3037 11.0797 37.1654C10.9071 37.0657 10.7292 36.9659 10.5765 36.8392C10.2399 36.5581 10.1523 36.2033 10.3709 35.8155C10.5913 35.426 10.9496 35.3323 11.3591 35.4589C11.53 35.5119 11.6861 35.616 11.8432 35.7071C13.7995 36.834 15.755 37.9601 17.7087 39.0905C19.2964 40.0084 19.6764 41.1493 18.9745 42.8601C18.9545 42.9078 18.9493 42.9616 18.9303 43.0423C19.8108 43.5524 20.6914 44.0625 21.5728 44.5709C23.7643 45.8358 25.9592 47.0938 28.1437 48.3717C28.4621 48.5574 28.6946 48.586 29.0321 48.3891C32.0816 46.608 35.1458 44.852 38.1979 43.077C38.3836 42.9694 38.6178 42.7725 38.6438 42.5912C38.8972 40.7979 39.9608 39.5781 41.4278 38.6785C43.2636 37.5524 45.2503 37.0327 47.3784 37.6417C49.7 38.3054 50.82 40.4865 50.1086 42.795C49.2437 45.6033 46.143 47.9258 43.2297 47.911C42.7482 47.9084 42.2451 47.8139 41.7931 47.649C41.4044 47.5067 41.1216 47.5415 40.7876 47.754C40.2505 48.0958 39.6927 48.4055 39.1331 48.7101C38.6065 48.9964 38.1458 48.8888 37.9055 48.4524C37.6756 48.0334 37.8092 47.5978 38.302 47.302C39.1297 46.8058 39.959 46.3104 40.8136 45.8653C41.0409 45.7473 41.4261 45.6962 41.6308 45.8089C43.2202 46.6852 44.6638 46.2505 46.0519 45.3665C47.0687 44.7193 47.8764 43.8604 48.3778 42.7464C49.1604 41.0079 48.3969 39.5061 46.5404 39.1148C44.6361 38.7132 41.8434 39.8193 40.8119 41.4546C40.5325 41.8971 40.3625 42.4567 40.3069 42.9798C40.2419 43.5923 40.0042 43.9628 39.4723 44.2655C36.5912 45.9018 33.7282 47.5683 30.8592 49.2254C30.6744 49.3321 30.494 49.4457 30.2641 49.5854V49.5828ZM17.0442 46.1985C17.1674 46.2792 17.255 46.3433 17.3487 46.3971C21.7793 48.9547 26.2099 51.5114 30.6414 54.0672C30.7516 54.1306 30.8644 54.1922 30.9815 54.2399C31.4795 54.442 31.9818 54.2659 32.243 53.8026C32.5128 53.3255 32.4087 52.8501 31.9549 52.5169C31.8083 52.4093 31.6565 52.307 31.4995 52.2159C27.0879 49.6626 22.6755 47.1103 18.2614 44.5596C18.2032 44.5258 18.1312 44.5154 18.0323 44.4833C17.7009 45.0585 17.3765 45.6215 17.0442 46.1976V46.1985ZM26.9257 53.8278C26.2559 53.4426 25.6382 53.0869 25.0145 52.7277C24.6744 53.2778 24.7845 53.7029 25.1706 54.0646C25.6105 54.4776 26.0321 54.4221 26.9257 53.8278Z" fill="#D95103"/>
<path d="M17.0439 46.1994C17.3762 45.6233 17.6998 45.0603 18.0321 44.4851C18.131 44.5172 18.203 44.5276 18.2611 44.5615C22.6744 47.1121 27.0868 49.6636 31.4992 52.2177C31.6563 52.3088 31.8081 52.4103 31.9547 52.5187C32.4084 52.8519 32.5117 53.3273 32.2427 53.8044C31.9816 54.2677 31.4793 54.4438 30.9813 54.2417C30.8642 54.194 30.7514 54.1324 30.6412 54.069C26.2097 51.5132 21.7791 48.9565 17.3485 46.3989C17.2548 46.3452 17.1671 46.281 17.0439 46.2003V46.1994Z" fill="white"/>
<path d="M26.9265 53.8286C26.032 54.4229 25.6113 54.4775 25.1714 54.0654C24.7854 53.7036 24.6752 53.2785 25.0153 52.7285C25.6399 53.0877 26.2567 53.4434 26.9265 53.8286Z" fill="white"/>
</g>
<defs>
<clipPath id="clip0_2513_6110">
<rect width="56" height="56" fill="white"/>
</clipPath>
</defs>
</svg>
