<svg width="194" height="83" viewBox="0 0 194 83" fill="none" xmlns="http://www.w3.org/2000/svg">
<path d="M12.0458 65.1851C12.0866 65.6827 12.1159 66.0551 12.1443 66.3995C12.4628 66.5489 12.7623 66.692 13.1901 66.8935C12.9258 67.1574 12.7812 67.3021 12.5531 67.5299C13.2239 67.5274 13.6605 68.3811 14.2929 68.2159C14.3532 68.1999 14.4608 68.2694 14.494 68.3485C14.7922 69.057 15.185 68.5896 15.5405 68.5947C15.8149 67.8837 16.3091 68.177 16.7153 68.093C16.8336 68.068 17.0415 68.1305 17.0805 68.2408C17.2345 68.7031 17.4962 68.6311 17.7393 68.6296C18.2067 68.6273 18.6724 68.5726 19.1379 68.5808C19.4233 68.5883 19.7114 68.669 19.9975 68.83C19.638 68.9123 19.2819 69.0225 18.921 69.0665C18.6464 69.1005 18.4247 69.2478 18.2964 69.5908C18.1576 69.9655 17.9318 70.0606 17.682 70.1391C16.928 70.3713 16.1765 70.6069 15.4251 70.8495C15.3928 70.8611 15.3692 70.9212 15.3581 70.9391C15.4401 71.4806 15.5192 72.0047 15.6098 72.5913C16.2594 72.4465 16.9683 72.4637 17.5756 72.1145C18.3273 71.68 19.1199 71.75 19.8747 71.4759C20.1149 71.3908 20.295 71.4612 20.3981 71.9357C19.8201 72.4549 19.0777 72.4843 18.3676 73.1058C18.6174 73.2297 18.7188 73.3204 18.817 73.3204C19.1793 73.3182 19.5245 73.2294 19.8745 73.6116C20.0058 73.757 20.3154 73.5857 20.5322 73.5014C20.9036 73.3593 21.2607 73.1409 21.6324 73.0058C22.0917 72.8363 22.5572 72.7119 23.0228 72.5874C23.1502 72.5551 23.2871 72.5922 23.4581 72.6002L23.4886 73.475C23.3503 73.5322 23.2453 73.6056 23.1336 73.62C22.6492 73.6718 22.1672 73.727 21.7277 74.0634C21.6777 74.1035 21.6178 74.13 21.5618 74.132C20.5607 74.118 19.6378 74.6667 18.6714 74.9098C18.1755 75.0353 18.1131 75.0584 17.651 75.6817C18.3318 76.0313 19.0439 75.6052 19.7647 76.0267C19.6309 76.2791 19.5342 76.457 19.418 76.6774C19.9425 77.036 20.303 76.1789 20.7676 76.4279C20.9053 77.0931 20.3983 76.7653 20.3104 77.1941C21.1751 77.321 22.0142 77.3824 22.8566 77.3391C24.3127 77.2639 25.7695 77.2061 27.2261 77.1448C27.3592 77.1401 27.5358 77.1095 27.6237 77.2147C28.0433 77.7165 28.4856 77.4638 28.9135 77.3965C29.6063 77.2886 30.2956 77.1424 30.9817 76.9754C31.3595 76.8819 31.7278 76.7155 32.1019 76.5838C32.2335 76.5374 32.3622 76.4736 32.4971 76.4549C34.1368 76.2127 35.7742 75.9707 37.4144 75.7425C38.0891 75.6491 38.7741 75.6497 39.4451 75.5181C40.7871 75.2549 42.1189 74.8979 43.4586 74.6348C44.1877 74.4907 44.9277 74.4614 45.6614 74.3834C46.3973 74.3019 47.1543 74.3558 47.8611 74.1113C49.0623 73.696 50.2854 73.8418 51.4961 73.7018C53.3332 73.4877 55.1695 73.2526 57.0065 73.0385C57.549 72.9742 58.0921 72.9273 58.6336 72.9049C60.2071 72.8431 61.7811 72.7951 63.3575 72.7471C63.584 72.7392 63.8318 72.6747 63.9474 73.1069C64.238 72.5908 64.8741 72.5965 65.5272 72.8878C65.6875 72.1912 66.0862 72.0936 66.5267 72.1201C68.035 72.2001 69.4854 71.626 70.97 71.4277C71.0654 71.4139 71.1785 71.3053 71.2502 71.3516C71.8817 71.7623 72.4857 71.3155 73.1001 71.3045C76.6394 71.2334 80.1756 71.0751 83.7129 70.9482C85.7723 70.8764 87.8328 70.8359 89.8911 70.7327C90.5539 70.6991 91.1633 70.8768 91.766 71.4001L91.7894 72.0728C92.326 72.5112 92.8954 72.7496 93.5134 72.5047C93.751 72.4126 93.9861 72.2509 94.227 72.253C95.5481 72.2592 96.8706 72.3073 98.1924 72.3345C99.6312 72.3645 101.072 72.3875 102.51 72.4071C103.385 72.4185 104.263 72.3774 105.117 72.8013C105.207 72.847 105.308 72.8574 105.406 72.861C107.096 72.9626 108.785 73.0607 110.474 73.1623C110.771 73.1798 111.057 73.0791 111.323 73.513C111.492 73.7933 111.831 73.743 111.997 73.4092C112.159 73.079 112.353 73.1037 112.561 73.1453C114.27 73.4904 115.982 73.4377 117.692 73.4827C117.807 73.4857 117.92 73.5271 118.034 73.565C118.062 73.5745 118.081 73.6471 118.164 73.8013C117.809 73.9567 117.482 74.0972 117.155 74.2412C117.187 74.3588 117.2 74.456 117.216 74.4555C118.184 74.5822 119.153 74.7404 120.121 74.8113C121.014 74.8778 121.91 74.8326 122.804 74.8642C123.829 74.9017 124.858 74.6949 125.874 75.148C125.967 75.1901 126.067 75.1971 126.164 75.2042C128.047 75.3199 129.93 75.4252 131.812 75.555C132.236 75.5855 132.661 75.6929 133.085 75.7793C133.412 75.8481 133.737 75.9833 134.065 76.0068C134.572 76.045 135.017 76.3505 135.426 76.741C135.643 76.9498 135.843 77.037 136.077 77.0428C138.159 77.0958 140.234 77.3968 142.305 77.7782C143.053 77.9161 143.22 77.7637 143.553 76.7157C143.61 76.5357 143.676 76.3554 143.765 76.2128C144.094 75.6674 144.116 75.4154 143.853 74.7231C143.678 74.2616 143.677 74.2268 143.783 73.5845C144.015 73.538 144.247 73.495 144.498 73.4444C144.015 72.9867 143.595 72.5372 143.145 72.183C142.821 71.9291 142.461 71.7358 142.102 71.6296C141.528 71.4542 140.935 71.433 140.367 71.233C139.709 70.9977 139.068 70.6363 138.417 70.3379C138.139 70.2115 137.857 70.1132 137.585 70.004C137.505 69.0751 137.443 68.9516 136.814 68.7572C136.549 68.6757 136.27 68.6506 136.002 68.6739C135.093 68.7579 134.256 68.1939 133.375 68.0292L133.369 67.8375C133.61 67.7872 133.848 67.6987 134.088 67.6903C136.111 67.6302 138.132 67.5911 140.154 67.5345C140.56 67.5203 140.968 67.4782 141.373 67.4117C141.491 67.3936 141.667 67.2828 141.7 67.149C141.784 66.8007 141.968 66.857 142.129 66.8549C143.646 66.8334 145.163 66.7735 146.68 66.8218C147.923 66.8622 149.167 67.0246 150.411 67.1557C150.758 67.1925 151.102 67.341 151.45 67.3986C151.972 67.4816 152.501 67.4911 153.019 67.6021C153.683 67.7465 154.344 67.9293 154.985 68.2699C155.254 68.414 155.56 68.4138 155.849 68.4491C156.077 68.476 156.301 68.4124 156.456 68.8083C156.504 68.9357 156.698 68.9813 156.829 69.0046C157.662 69.1466 158.496 69.271 159.328 69.406C159.444 69.4229 159.595 69.3932 159.668 69.4884C160.211 70.1778 160.866 70.1305 161.501 70.2201C161.785 70.259 162.022 70.3484 162.287 70.6428C162.61 71.0014 163.074 71.1702 163.486 71.2291C164.122 71.3185 164.767 71.2333 165.41 71.2527C165.658 71.2615 165.936 71.1017 166.131 71.6009C166.182 71.7317 166.561 71.729 166.715 71.6015C167.138 71.2448 167.589 71.1802 168.056 71.1569C168.87 71.1215 169.675 71.0551 170.473 71.5472C170.845 71.7784 171.003 72.0626 171.012 72.6066C170.78 72.9183 170.54 72.8115 170.37 72.5732C170.127 72.2292 169.852 72.1795 169.56 72.1827C169.155 72.1863 168.752 72.2283 168.347 72.2145C168.198 72.2093 168.049 72.1028 167.883 72.0318C167.889 72.4853 168.086 72.6424 168.357 72.7481C169.196 73.0783 170.037 73.2688 170.889 73.0332C171.128 72.969 171.354 72.832 171.592 72.7504C171.759 72.6923 171.932 72.6478 172.105 72.6453C173.194 72.6212 174.28 72.5903 175.32 72.0585C175.706 71.8601 176.165 72.0116 176.495 71.4871C176.583 71.3444 176.829 71.4196 177.004 71.3961C177.269 71.3589 177.534 71.3217 177.81 71.1935C177.41 70.52 176.784 70.6535 176.293 70.1297C176.398 70.0423 176.476 69.9279 176.566 69.9073C177.598 69.6655 178.63 69.441 179.663 69.2061C180.214 69.0786 180.763 68.9234 181.318 68.8133C182.07 68.6649 182.816 68.6773 183.568 69.0315C183.831 69.1549 184.145 69.0323 184.435 69.0222C185.831 68.9734 187.225 68.9213 188.622 69.1762C189.297 69.2992 189.983 69.3032 190.661 69.3214C190.902 69.3269 191.141 69.2174 191.396 69.1561C191.231 68.6245 190.968 68.4767 190.671 68.2707C189.991 67.7954 189.303 67.9276 188.611 67.8401C188.035 67.7694 187.469 67.4925 186.949 67.3222C186.878 66.6791 186.81 66.0848 186.732 65.3756C186.875 65.3253 187.089 65.2201 187.307 65.1776C187.634 65.1173 187.963 65.0814 188.294 65.0699C188.633 65.0581 188.919 64.8945 189.16 64.5651C189.139 64.4925 189.131 64.4056 189.108 64.3959C188.611 64.1759 188.117 63.9454 187.615 63.7536C187.371 63.6609 187.103 63.6981 186.866 63.5878C186.355 63.3474 185.842 63.2536 185.313 63.2302C184.648 63.2011 184.515 62.9475 184.519 61.9179C184.111 61.6181 183.696 61.3115 183.156 60.9186C184.82 60.4452 186.402 60.4145 187.996 60.6031C188.023 60.0299 188.044 59.579 188.068 59.1106C188.325 58.9934 188.563 58.8874 188.802 58.7779C188.827 58.5502 188.849 58.3261 188.885 58.0003C187.162 57.8231 185.461 57.6486 183.763 57.4776C183.745 57.4293 183.729 57.381 183.711 57.3328C184.02 57.001 184.329 56.6692 184.676 56.2976C184.305 55.3928 183.533 55.3848 183.026 54.7151C183.135 54.624 183.308 54.5622 183.377 54.3992C183.665 53.7192 184.101 53.8192 184.514 53.9548C185.082 54.1409 185.633 54.4706 186.203 54.6461C186.902 54.859 187.612 54.9529 188.297 54.6254C188.299 54.5625 188.302 54.4996 188.305 54.4402C187.141 54.1912 185.975 53.9422 184.811 53.6897C184.808 53.6619 184.802 53.6342 184.799 53.6029C185.014 53.5256 185.228 53.4448 185.443 53.3675C185.575 53.3211 185.751 53.3394 185.831 53.2179C186.33 52.4468 186.927 52.8098 187.505 52.9117C188.18 53.0278 188.858 53.1367 189.534 53.2318C189.659 53.2484 189.785 53.1916 189.941 53.1618C189.791 52.5598 189.372 52.7454 189.139 52.3732C189.622 51.9899 190.147 52.2368 190.702 52.0604C190.516 51.7668 190.378 51.5483 190.187 51.2478C190.883 51.0142 191.601 50.9752 192.137 50.2307C191.936 49.7177 191.673 49.4652 191.243 49.4767C190.883 49.4892 190.519 49.2961 190.155 49.1971C189.945 49.1416 189.735 49.0791 189.524 49.0516C188.73 48.9432 187.934 48.8488 187.14 48.7404C186.694 48.6792 186.248 48.625 185.805 48.5288C185.157 48.3874 184.51 48.2076 183.76 48.0174C184.032 47.7741 184.232 47.5961 184.449 47.4036C184.185 46.9173 183.896 46.6028 183.463 46.6144C183.279 46.6209 183.089 46.4739 182.904 46.3932C182.757 46.3285 182.613 46.2219 182.465 46.1956C182.114 46.1311 181.747 46.2625 181.466 45.714C181.376 45.5357 181.095 45.5874 180.911 45.4926C180.64 45.3485 180.376 45.1693 180.042 44.9611C180.396 44.6102 180.686 44.3279 181.106 43.912C180.685 43.6964 180.409 43.5524 180.087 43.3857C180.245 43.0277 180.471 43.1211 180.661 43.083C181.007 43.0186 181.407 43.2105 181.64 42.6022C181.681 42.4961 181.896 42.5025 182.026 42.5259C182.414 42.5892 182.798 42.6874 183.184 42.7682C183.759 42.8877 184.333 42.9828 184.896 42.855C184.959 42.3678 184.875 42.1125 184.612 41.9367C184.272 41.7147 183.936 41.4578 183.615 41.1724C183.383 40.9676 183.155 40.7208 182.972 40.4306C182.791 40.1437 182.608 39.9931 182.349 39.8695C181.814 39.6125 181.301 39.2326 180.805 38.8242C180.651 38.697 180.584 38.3224 180.458 38.0092C179.73 37.6368 178.942 37.4166 178.114 37.3477C177.411 37.2885 176.712 36.9046 176.012 36.6603C175.86 36.6063 175.709 36.4964 175.559 36.4912C174.609 36.4476 173.723 36.0004 172.851 35.4585C172.727 35.3826 172.597 35.3383 172.388 35.2374C172.991 34.8325 173.665 35.2626 174.254 34.5163C173.575 34.3654 173.002 34.3645 172.442 34.4608C171.887 34.5569 171.343 34.7748 170.752 34.7885C170.936 34.6285 171.117 34.4687 171.301 34.3087C171.299 34.2529 171.297 34.1937 171.295 34.1379C170.07 33.8875 168.844 33.6407 167.619 33.3902C167.844 32.7857 168 32.7139 167.34 32.2031C167.528 32.1616 167.714 32.0888 167.903 32.0822C168.912 32.0366 169.923 32.0152 170.932 31.9696C171.142 31.9623 171.347 31.8853 171.572 31.8391C171.596 31.5102 171.614 31.2339 171.638 30.8946C172.194 30.8228 172.743 30.7513 173.323 30.6788C173.264 30.5308 173.251 30.444 173.225 30.4379C172.624 30.232 172.024 29.9668 171.416 29.8484C170.821 29.7331 170.215 29.7926 169.632 29.4396C169.489 29.3504 169.262 29.3548 169.135 29.4674C168.797 29.7584 168.436 29.8024 168.068 29.7629C167.001 29.6535 165.93 29.5373 164.863 29.3757C164.567 29.3302 164.279 29.1099 163.979 28.9633C164.023 28.6163 164.101 28.3623 164.07 28.1366C164.042 27.9422 163.894 27.7798 163.801 27.6051C163.875 27.449 163.934 27.3178 164.047 27.0801C162.911 26.8789 161.848 27.1812 160.792 27.0436C159.728 26.9027 158.672 26.6045 157.662 26.3851C157.877 26.1856 158.353 26.019 158.881 26.011C160.124 25.9956 161.369 25.9661 162.613 25.982C163.018 25.9853 163.422 26.1283 163.826 26.177C164.39 26.2446 164.953 26.3226 165.517 26.3309C166.455 26.347 167.398 26.3769 168.293 26.8307C168.986 27.18 169.654 27.2334 170.354 27.1322C170.717 27.0812 171.088 27.138 171.448 27.0801C171.597 27.054 171.74 26.871 171.864 26.7201C172.027 26.519 172.215 26.2682 172.062 25.9176C171.912 25.5738 171.801 25.131 171.427 25.1232C171.23 25.1161 171.02 24.9908 170.835 24.8542C170.607 24.6807 170.404 24.5482 170.237 24.8471C170.3 25.1102 170.357 25.3524 170.433 25.6638L168.741 25.7229C168.609 25.4448 168.466 25.1427 168.307 24.8063C168.745 24.5049 169.12 24.408 169.477 24.9958C169.643 24.8574 169.802 24.7227 169.961 24.5881C169.934 23.933 169.539 24.013 169.316 23.794C169.033 23.5177 168.767 23.5933 168.577 24.0536C168.5 24.2412 168.364 24.3786 168.253 24.536C168.05 24.8257 167.755 24.8151 167.631 24.5367C167.418 24.0591 167.156 24.1171 166.87 24.1166C166.775 24.1199 166.68 24.0918 166.577 24.078C166.646 23.6568 166.71 23.2707 166.795 22.7548C166.53 22.7326 166.345 22.7251 166.162 22.6966C165.875 22.6508 165.59 22.6573 165.344 22.3134C165.234 22.1602 165.023 22.1466 164.853 22.1107C164.629 22.0661 164.4 22.0602 164.14 22.0344C164.714 20.793 165.539 21.1969 166.273 21.269C167.045 21.3467 167.121 21.3685 167.607 20.371C167.491 20.1308 167.37 19.8802 167.222 19.5714C166.439 19.6545 165.636 19.7697 164.824 19.477C164.866 18.9382 165.226 19.0582 165.355 18.8129C164.732 17.9797 163.933 17.9169 163.182 17.629C162.945 17.5361 162.711 17.4116 162.478 17.3011L162.486 17.1019C162.898 17.0596 163.307 16.9895 163.72 16.9821C165.409 16.9476 167.102 16.9409 168.791 16.8994C169.092 16.8889 169.386 16.76 169.694 16.5155C169.582 16.4635 169.469 16.3733 169.356 16.3667C168.986 16.3413 168.617 16.3402 168.25 16.346C167.939 16.3499 167.649 16.3356 167.348 16.0983C167.12 15.9213 166.821 15.9282 166.554 15.9027C166 15.8522 165.445 15.8366 164.792 15.8001C165.027 15.3767 165.242 15.2889 165.48 15.2945C166.395 15.315 167.338 15.1251 168.215 15.419C169.31 15.7856 170.373 15.6229 171.45 15.676C171.696 15.6884 171.947 15.6343 172.133 16.0116C172.183 16.1111 172.351 16.1052 172.466 16.1117C172.778 16.1357 173.089 16.1318 173.401 16.1593C173.919 16.2041 174.427 16.1759 174.952 16.3983C175.369 16.5757 175.847 16.4055 176.382 16.3868C176.265 16.2478 176.229 16.1653 176.185 16.1529C175.925 16.0957 175.72 16.0261 175.478 15.7239C175.177 15.3506 174.701 15.2346 174.288 15.1338C173.001 14.8193 171.71 14.5328 170.418 14.2883C169.14 14.0467 167.861 13.8401 166.579 13.672C165.28 13.5009 163.975 13.4347 162.678 13.2357C161.728 13.0909 160.784 12.8761 159.827 12.9269C159.654 12.933 159.451 12.94 159.311 12.8158C158.898 12.4498 158.488 12.5409 158.064 12.6499C157.892 12.6943 157.715 12.711 157.542 12.7065C156.259 12.6571 154.973 12.6426 153.693 12.5268C152.9 12.4567 152.11 12.2086 151.318 12.0757C150.429 11.9252 149.538 11.7749 148.647 11.6943C147.737 11.6144 146.825 11.6776 145.917 11.5802C145.339 11.5166 144.767 11.2713 144.192 11.1169C143.982 11.0614 143.768 11.027 143.556 10.9821C143.247 10.9195 142.937 10.8676 142.628 10.7946C142.15 10.6856 141.669 10.5803 141.192 10.4469C140.699 10.3105 140.211 10.1217 139.717 9.98533C138.703 9.71016 137.685 9.43508 136.665 9.19849C136.029 9.05319 135.386 8.99883 134.748 8.86755C133.957 8.70671 133.171 8.48986 132.377 8.3291C131.337 8.11765 130.295 7.93764 129.252 7.74021C129.078 7.7079 128.892 7.7179 128.732 7.62577C127.92 7.15157 127.082 7.25061 126.25 7.25869C126.031 7.26286 125.805 7.4208 125.599 7.56058C125.394 7.70035 125.211 7.90561 125.016 8.07991C124.98 8.76981 125.304 9.34708 125.989 9.81174C125.726 9.86974 125.462 9.99412 125.202 9.97528C124.25 9.90728 123.3 9.79737 122.351 9.69086C121.457 9.58945 120.564 9.4566 119.67 9.36564C117.514 9.14425 115.361 8.80411 113.198 8.85863C112.815 8.87199 112.426 8.70411 112.04 8.64079C111.539 8.55706 111.037 8.435 110.536 8.42107C108.863 8.37823 107.191 8.36677 105.517 8.36235C105.209 8.36265 104.901 8.45365 104.594 8.50622C104.153 8.57747 103.71 8.70107 103.267 8.71655C102.004 8.76062 100.74 8.78029 99.4746 8.77208C99.1495 8.76946 98.824 8.6203 98.4991 8.55486C98.1531 8.48667 97.806 8.38711 97.4603 8.39568C95.4584 8.44109 93.4556 8.52841 91.454 8.5808C90.055 8.61913 88.654 8.60171 87.2555 8.65398C85.1964 8.7328 83.1386 8.85344 81.0802 8.95317C80.7931 8.96668 80.5054 9.02906 80.2563 8.65738C80.1799 8.54489 79.9925 8.53398 79.8673 8.56278C77.8545 9.0343 75.8092 9.03935 73.7776 9.23934C72.9877 9.31575 72.2103 9.68136 71.421 9.70541C69.6834 9.75556 67.9837 10.1533 66.2713 10.4539C66.1551 10.4754 66.0417 10.5072 65.9251 10.5148C63.0561 10.7684 60.1889 11.0046 57.3206 11.2791C55.8294 11.4219 54.3427 11.6273 52.8551 11.8048C52.6223 11.8338 52.3924 11.8768 52.1591 11.8919C50.529 12.0046 48.9001 12.0893 47.2709 12.2299C46.6136 12.2843 45.9648 12.45 45.3121 12.5704C45.2354 12.5836 45.1621 12.628 45.0852 12.6342C42.8572 12.8341 40.6828 13.6288 38.4324 13.5886C37.7611 13.5772 37.0921 13.8343 36.4206 13.9519C35.9023 14.0398 35.38 14.1453 34.8593 14.1634C33.9417 14.1955 33.0481 14.3802 32.1466 14.607C30.8328 14.9425 29.5031 15.1599 28.1795 15.4154C27.7569 15.4965 27.3334 15.5531 26.8939 15.7534C27.0452 15.804 27.1968 15.8615 27.3503 15.905C28.1298 16.136 28.9291 16.5304 29.7049 16.2521C30.8455 15.8424 32.0313 15.9266 33.1677 15.5311C33.3826 15.4573 33.5877 15.307 33.8186 15.627C33.9143 15.7563 34.1603 15.7058 34.3245 15.6547C36.7512 14.9175 39.2299 15.0718 41.6959 14.9928C41.955 14.9837 42.2113 14.8247 42.4649 14.7217C42.5571 14.6835 42.6376 14.5795 42.7279 14.5554C43.6113 14.3467 44.4968 14.3297 45.3947 14.6718C45.2857 14.6965 45.1745 14.7248 45.0653 14.7461C44.9492 14.7676 44.8325 14.7717 44.7188 14.7966C43.972 14.9692 43.2318 15.1939 42.4807 15.3074C41.4202 15.4665 40.3519 15.5352 39.2905 15.6699C38.9669 15.7091 38.6492 15.8493 38.3268 15.9234C37.9465 16.0099 37.5636 16.0931 37.1773 16.1414C36.1135 16.2728 35.0514 16.3866 33.9874 16.511C33.9129 16.5205 33.8393 16.5545 33.7672 16.7001C34.4646 16.7211 35.1604 16.7632 35.8571 16.7633C36.4602 16.7632 37.0618 16.7178 37.6643 16.7002C38.1782 16.6893 38.6614 16.5328 39.1222 16.2062C39.3891 16.0154 39.6433 15.8635 39.8987 16.3501C39.9789 16.5043 40.223 16.5307 40.3863 16.5215C41.2586 16.4632 42.1292 16.356 43.0016 16.3012C43.2839 16.2843 43.572 16.3685 43.8587 16.4108C44.2206 16.4645 44.5871 16.5843 44.9465 16.5648C45.6628 16.5259 46.3766 16.4137 47.0936 16.3259C48.0968 16.2002 49.0997 16.0675 50.1027 15.9348C50.8566 15.8352 51.6078 15.7218 52.3622 15.6361C53.3287 15.5291 54.3022 15.4917 55.2675 15.3498C57.2118 15.0621 59.1543 14.7222 61.0979 14.4136C61.5211 14.3465 61.9503 14.3176 62.3771 14.2887C62.489 14.2813 62.6591 14.2649 62.7091 14.3574C62.9715 14.8437 63.3096 14.6854 63.628 14.6987C64.3094 14.7308 64.9882 14.7525 65.6697 14.788C65.7775 14.7947 65.885 14.8608 65.9938 14.8988L65.9932 15.0803C64.2683 15.3603 62.5432 15.6334 60.8209 15.9203C60.1678 16.0303 59.5184 16.1786 58.8655 16.2921C58.3472 16.38 57.8234 16.4436 57.3044 16.5106C56.0874 16.6717 54.8724 16.8257 53.6555 16.9903C53.0179 17.0754 52.3834 17.2476 51.7457 17.2628C49.8956 17.303 48.0649 17.5657 46.2367 17.8982C45.4259 18.0451 44.6365 18.2681 43.9108 18.8413C43.7651 18.9545 43.5773 18.9995 43.4067 19.0019C42.2362 19.0218 41.0961 19.3129 39.9486 19.5902C38.9981 19.8188 38.0146 19.7728 37.0462 19.8903C36.1965 19.9933 35.3534 20.1518 34.5047 20.2826C34.0233 20.3552 33.5395 20.4245 33.0578 20.4901C32.1899 20.6076 31.3221 20.7252 30.4563 20.8356C29.2203 20.9904 27.9858 21.187 26.7478 21.2825C25.5447 21.3769 24.3479 21.4465 23.1563 21.7324C22.2429 21.9527 21.3005 21.9472 20.3712 22.0459C20.1033 22.0727 19.8334 22.11 19.5539 22.2733C19.6439 22.3086 19.7324 22.3648 19.8215 22.3722C23.6812 22.7086 27.5107 22.1772 31.355 22.0047C31.7215 21.9884 32.0854 21.8989 32.518 21.835C32.3865 22.021 32.293 22.1534 32.1437 22.3645C32.4762 22.5134 32.7397 22.6299 33.1316 22.8046C32.9318 22.9756 32.8362 23.115 32.7315 23.1292C32.4245 23.1748 32.1113 23.1787 31.8006 23.1861C30.147 23.2298 28.4937 23.2805 26.8705 23.728C26.5417 23.8197 26.1013 23.6606 25.9434 24.3605C25.9251 24.4379 25.731 24.4377 25.6167 24.4452C24.9566 24.4857 24.2975 24.5575 23.6355 24.5457C22.4986 24.5261 21.4126 24.892 20.2202 25.2895C20.8921 25.786 21.5364 26.0288 22.1559 26.4957C21.84 26.5556 21.5232 26.6539 21.2059 26.6719C20.198 26.7315 19.2006 26.8221 18.2061 27.129C17.3618 27.3888 16.4686 27.3152 15.5974 27.405C15.241 27.4418 14.8491 27.3334 14.5966 27.8691C14.5618 27.9436 14.4566 27.9438 14.3828 27.9708C13.1295 28.4332 11.8792 28.9131 10.6227 29.3512C10.23 29.4871 9.82038 29.5397 9.4179 29.5957C8.78277 29.6841 8.1442 29.7413 7.45955 29.8175C7.60278 30.3046 7.9167 30.1889 8.10169 30.3988C8.16758 31.0142 8.00708 31.3722 7.59068 31.4984C7.28993 31.5892 7.00169 31.7702 6.70131 31.8714C6.28528 32.0081 5.88582 32.1511 5.5455 32.5817C5.39993 32.7648 5.16054 32.8046 4.95665 32.857C4.52354 32.9733 4.07657 32.961 3.69361 33.3757C3.55174 33.5307 3.32454 33.5177 3.13502 33.5801C2.97327 33.6346 2.80907 33.6857 2.52 33.7761C3.00381 34.1081 3.37754 34.0323 3.74756 34.0508C3.96544 34.0641 4.19749 33.9478 4.37062 34.3536C4.4341 34.4979 4.6945 34.5237 4.85501 34.5007C5.25958 34.4377 5.65768 34.3226 6.05822 34.211C6.46577 34.099 6.82492 34.2086 7.14437 34.7209C6.90499 35.3644 6.44198 35.227 6.08308 35.3931C5.72185 35.5592 5.34637 35.6526 4.88892 35.8081C5.80764 36.1425 6.61272 36.4354 7.42013 36.7283C7.41777 36.7947 7.41761 36.8575 7.41525 36.9239C6.56849 37.0442 5.72175 37.1644 4.875 37.2847C4.87178 37.3267 4.8709 37.3686 4.86781 37.4141C5.46579 37.7352 6.06366 38.0528 6.65932 38.374C6.66138 38.4333 6.66345 38.4925 6.66306 38.5484C5.44242 38.8073 4.26197 39.3475 2.90773 39.3284C3.0746 39.689 3.16831 39.8951 3.27968 40.139C3.38862 39.9782 3.48428 39.8387 3.58449 39.6957C3.86373 40.2617 3.86445 40.2826 4.29235 40.2851C4.83712 40.2871 5.38031 40.2437 5.92447 40.2282C6.13695 40.2208 6.34832 40.2483 6.66684 40.2651C6.5322 40.4931 6.46751 40.6489 6.37518 40.7499C5.44465 41.7524 4.35619 42.1149 3.23179 42.3182C2.92971 42.3706 2.61351 42.3537 2.32689 42.7825C2.49092 42.8605 2.60923 42.968 2.72352 42.9606C3.42119 42.9223 4.12154 42.8943 4.81492 42.8004C5.8572 42.6558 6.89276 42.4522 7.93432 42.2867C8.18073 42.2467 8.43153 42.2659 8.71406 42.256C8.74477 42.6004 8.76731 42.8439 8.78959 43.0804C8.71743 43.1562 8.67805 43.2344 8.62705 43.2466C7.67996 43.5065 6.73374 43.7908 5.7804 44.0055C4.69028 44.2529 3.59281 44.4238 2.50207 44.6538C2.09601 44.7412 1.65446 44.7496 1.35008 45.3395C1.78523 45.6838 2.18193 45.9979 2.58096 46.3121C2.55576 46.6619 2.52733 47.0537 2.49323 47.5504C2.38665 47.6449 2.21198 47.7975 1.94191 48.0303C2.14427 48.1349 2.25791 48.2426 2.36765 48.2388C2.81362 48.2232 3.25862 48.1798 3.7062 48.1432C3.80415 48.1363 3.89903 48.1086 3.99464 48.1017C4.7739 48.0571 5.06895 48.7412 4.72951 49.8C4.70638 49.8741 4.66653 49.9383 4.584 50.1191C4.87081 50.1649 5.10967 50.2438 5.3455 50.2356C5.84985 50.218 6.30436 50.3801 6.70983 50.879C6.82456 51.018 6.99217 51.0645 7.13728 51.1362C7.3179 51.2207 7.50024 51.2876 7.73026 51.3808C7.13633 51.7121 6.5707 51.9167 6.08932 52.3244C5.47406 52.8483 4.82273 52.8745 4.15039 52.9015C3.7838 52.9143 3.7843 52.9282 3.20088 53.7617C3.37125 53.9546 3.52179 54.2495 3.69664 54.3027C4.52557 54.5425 5.35723 55.0613 6.20453 54.4874C6.33925 54.3954 6.50724 54.3861 6.66134 54.3807C7.74918 54.3358 8.83726 54.2978 9.92571 54.2703C10.0938 54.2645 10.2625 54.3423 10.4398 54.4653C9.46666 54.7819 8.43735 54.7619 7.53625 55.603C7.66289 55.7486 7.80182 55.9112 7.96016 56.0942C7.76691 56.586 7.43371 56.6848 7.15368 56.9005C7.00113 57.0175 6.82094 57.0796 6.69075 57.2342C6.41474 57.5649 6.46427 57.9121 6.69159 58.3299C7.00143 58.9018 7.37338 58.9761 7.81848 59.0025C8.45565 59.0395 9.09288 59.279 9.7266 59.0161C9.77957 58.9934 9.86559 58.9799 9.89753 59.0241C10.4362 59.7905 11.076 59.4332 11.6666 59.4091C12.2526 59.3852 12.7835 59.5272 13.3297 59.9722C13.1056 60.4511 12.7782 60.6475 12.4326 60.7922C11.8035 61.0549 11.1747 61.3246 10.5398 61.5526C10.2581 61.6532 10.1218 61.9022 10.0456 62.2643C10.4126 63.1344 10.9286 63.5177 11.6093 63.5951C12.1797 63.6625 12.7427 63.9185 13.4303 64.1283C12.9415 64.592 12.6665 65.2193 12.059 65.1602L12.0458 65.1851ZM166.463 24.6229C166.355 24.679 166.253 24.7802 166.155 24.7697C165.692 24.723 165.229 24.6554 164.768 24.5703C164.441 24.5084 164.117 24.3348 163.794 24.3321C163.044 24.3234 162.344 23.9674 161.642 23.622C161.426 23.5144 161.225 23.3295 160.916 23.1065C161.322 22.8166 161.644 22.589 161.876 22.4239C162.173 22.6125 162.374 22.7555 162.582 22.8704C162.801 22.9953 163.037 23.0604 163.246 23.2136C163.733 23.577 164.239 23.7338 164.771 23.7153C165.364 23.6946 165.87 24.1969 166.427 24.4043C166.434 24.404 166.436 24.4563 166.463 24.6194L166.463 24.6229ZM161.444 22.0831C160.665 22.4662 159.658 22.4839 159.015 22.1538C159.511 21.641 160.604 21.5889 161.444 22.0831ZM10.7047 33.7138C10.6974 33.6373 10.6925 33.5642 10.6852 33.4877C11.2197 33.2632 11.7565 33.3038 12.2976 33.4698L12.3042 33.658L10.7047 33.7138ZM181.836 54.7147C182.164 54.4032 182.404 54.51 182.695 54.7336C182.406 55.0229 182.163 55.0977 181.836 54.7147ZM127.305 74.4908C127.302 74.4107 127.297 74.3341 127.292 74.254C127.578 74.2789 127.862 74.3004 128.148 74.3253C128.147 74.3707 128.147 74.4161 128.146 74.4615L127.305 74.4908ZM160.274 17.5036C160.276 17.4407 160.277 17.3814 160.279 17.3185L160.723 17.303L160.728 17.4424C160.576 17.4617 160.425 17.4809 160.272 17.5002L160.274 17.5036ZM184.087 64.4908C184.021 64.2628 183.961 64.1498 183.972 64.0621C183.987 63.9534 184.061 63.8636 184.111 63.7676C184.158 63.8428 184.233 63.9134 184.243 63.9968C184.253 64.0733 184.193 64.1696 184.087 64.4908ZM109.401 71.2909C109.403 71.3501 109.41 71.4092 109.412 71.472L108.828 71.4923C108.827 71.454 108.825 71.4156 108.822 71.3774C109.015 71.3497 109.208 71.322 109.401 71.2944L109.401 71.2909ZM33.6679 22.9674L33.2616 22.9816C33.4102 22.6169 33.5273 22.6233 33.6679 22.9674ZM11.4471 35.6945C11.453 35.6629 11.4588 35.6278 11.4647 35.5961C11.5354 35.6111 11.6037 35.6262 11.6742 35.6377C11.6725 35.6552 11.6707 35.6692 11.6689 35.6867L11.4495 35.6944L11.4471 35.6945Z" fill="#D95103"/>
<path d="M95.6967 4.61904C95.3636 3.64659 94.994 3.50595 94.4971 4.07463C94.3887 3.98071 94.2851 3.82729 94.1721 3.80332C93.5152 3.66921 92.8557 3.4619 92.2013 3.46728C89.3452 3.48666 86.4926 3.60711 83.6481 3.9576C81.8137 4.18212 79.9625 4.19087 78.1243 4.37015C77.1014 4.46865 76.091 4.72375 75.0732 4.89884C74.727 4.95977 74.3803 5.00676 74.0329 5.03284C72.4449 5.14756 70.8534 5.231 69.2661 5.36664C68.0867 5.46711 66.9059 5.59554 65.7315 5.77261C65.1176 5.8673 64.5151 6.08723 63.9116 6.27579C63.7751 6.31893 63.6561 6.45918 63.4124 6.64216C63.6383 6.75292 63.7373 6.84369 63.8306 6.83695C64.9159 6.78513 66.0112 6.82019 67.0816 6.61186C67.5135 6.527 67.9427 6.23286 68.4001 6.27623C68.6394 6.29929 68.876 6.44806 69.1146 6.52C69.3036 6.57622 69.4975 6.63925 69.6868 6.63613C71.1609 6.60564 72.6353 6.58561 74.1077 6.50633C74.5744 6.48307 75.078 6.57717 75.49 6.1231C75.5035 6.10867 75.5334 6.09368 75.5454 6.10372C75.9397 6.48429 76.2833 6.01168 76.6567 5.99516C79.6443 5.85952 82.6334 5.69593 85.6205 5.54635C87.5225 5.45208 89.426 5.39963 91.3266 5.26702C92.08 5.21631 92.8225 4.9915 93.5706 4.85722C93.8564 4.80538 94.1479 4.78474 94.4367 4.75373C94.8489 4.70794 95.259 4.66921 95.6945 4.62261L95.6967 4.61904Z" fill="#D95103"/>
<path d="M120.214 7.4695C120.375 6.97536 120.67 7.0558 120.987 7.17384C121.513 7.37185 122.04 7.60123 122.629 7.52485L122.6 6.68837C122.167 6.22537 121.504 6.57305 121.264 5.7858C121 5.74265 120.796 5.71139 120.593 5.67309C120.4 5.63794 120.209 5.56786 120.016 5.55363C119.532 5.52518 119.445 5.59102 119.033 6.18117C118.949 5.69907 118.735 5.55296 118.425 5.56728C118.175 5.576 117.919 5.52911 117.671 5.45402C116.671 5.15388 115.665 5.05987 114.652 5.04286C114.343 5.03618 114.035 4.90736 113.725 4.87977C112.853 4.79854 111.979 4.75225 111.105 4.67459C110.096 4.58414 109.087 4.41694 108.079 4.38234C106.876 4.34056 105.671 4.39305 104.468 4.42106C104.087 4.43085 103.793 4.64351 103.733 5.39239C104.047 5.48263 104.361 5.57287 104.677 5.66303L104.702 5.77731C104.247 5.92581 103.789 6.07438 103.334 6.21938C103.336 6.28212 103.338 6.34486 103.34 6.40759C103.616 6.45383 103.89 6.54545 104.163 6.53592C104.96 6.51163 105.754 6.44551 106.55 6.40728C107.015 6.3841 107.482 6.38872 107.947 6.36205C108.838 6.31003 109.729 6.19518 110.622 6.19892C111.726 6.20578 112.833 6.31371 113.939 6.36588C114.316 6.38414 114.695 6.33949 115.073 6.38214C115.458 6.42106 115.856 6.44207 116.217 6.61789C116.826 6.91421 117.429 7.03277 118.059 7.00381C118.524 6.9876 118.991 7.04109 119.454 7.12264C119.696 7.16653 119.933 7.32924 120.216 7.45896L120.214 7.4695Z" fill="#D95103"/>
<path d="M29.7417 17.2352C29.2644 17.0878 28.7994 17.0936 28.3339 17.2843C28.0042 17.4145 27.661 17.4927 27.3189 17.5361C26.2414 17.6749 25.1625 17.7718 24.0852 17.9141C23.7641 17.9567 23.4617 18.1313 23.1614 18.571C23.5517 18.6341 23.8368 18.8336 24.0987 18.301C24.1927 18.1128 24.5337 18.1741 24.7625 18.1662C25.8275 18.1395 26.8934 18.1372 27.9582 18.107C28.3411 18.0937 28.7096 18.0703 29.0208 17.6093C29.1831 17.3699 29.4957 17.352 29.7417 17.2352Z" fill="#D95103"/>
<path d="M56.3168 7.41987C56.8223 7.77213 59.6462 7.712 60.3847 7.37217C60.3116 7.01878 60.1058 6.94919 59.9242 6.96949C59.356 7.03118 58.7845 6.93247 58.2141 7.06404C57.6622 7.19147 57.0943 7.19384 56.5355 7.2587C56.4843 7.26397 56.4398 7.32834 56.3168 7.41987Z" fill="#D95103"/>
<path d="M177.537 74.8774C177.555 74.5941 177.569 74.3773 177.586 74.0801C177.39 74.0869 177.184 73.9999 177.104 74.1144C176.691 74.6941 176.157 74.4545 175.68 74.5897C175.463 74.6532 175.244 74.6957 175.035 74.8461C175.878 75.2424 176.703 75.1717 177.537 74.8774Z" fill="#D95103"/>
<path d="M98.5912 3.6838L97.7624 3.71271C97.7176 3.96901 97.6746 4.2113 97.614 4.5519C97.5775 4.2426 97.5512 4.02367 97.5145 3.71089C97.2095 3.74596 96.9115 3.78078 96.6089 3.81576C96.728 4.08031 96.842 4.33456 97.0019 4.69539C97.6514 5.1543 98.147 4.68685 98.5913 3.68728L98.5912 3.6838Z" fill="#D95103"/>
<path d="M60.9527 6.75188C61.6436 7.1919 62.3381 7.06298 63.0272 6.98311C63.1017 6.97353 63.1865 6.7926 63.217 6.66242C63.2271 6.61671 63.0936 6.4085 63.0306 6.4107C62.3297 6.42119 61.6147 6.29608 60.9527 6.75188Z" fill="#D95103"/>
<path d="M166.91 28.1844C167.719 28.3376 168.529 28.4873 169.336 28.6406C169.384 28.2132 169.245 27.9947 169.04 27.9495C168.315 27.7934 167.593 27.8011 166.91 28.1844Z" fill="#D95103"/>
<path d="M31.1801 17.2474C31.879 17.5127 32.4936 17.4424 33.1697 17.1885C32.7362 16.6906 31.7114 16.7299 31.1801 17.2474Z" fill="#D95103"/>
<path d="M102.705 6.20308C101.894 6.08479 101.08 6.27371 100.27 6.17285C100.162 6.15917 100.048 6.2888 99.8688 6.38926C100 6.53124 100.063 6.65119 100.119 6.64924C100.982 6.60167 101.844 6.53669 102.707 6.47518C102.706 6.38448 102.706 6.29378 102.705 6.20656L102.705 6.20308Z" fill="#D95103"/>
<path d="M99.3239 3.90578C99.0561 4.00236 98.7907 4.09886 98.4583 4.21864C98.7002 4.58708 98.8803 4.85996 99.0827 5.16696C99.3413 5.14049 99.616 5.10997 99.9677 5.07327C99.7083 4.60425 99.5138 4.2551 99.3216 3.90586L99.3239 3.90578Z" fill="#D95103"/>
<path d="M24.1522 16.2297C24.3115 16.5766 24.3953 16.7656 24.5015 16.9957C25.0525 16.1075 25.8158 16.7474 26.4497 16.3554C26.2725 15.9673 26.0198 15.8923 25.7558 16.0307C25.4161 16.21 25.0895 16.2284 24.7344 16.1012C24.5854 16.0506 24.4117 16.1648 24.1522 16.2297Z" fill="#D95103"/>
<path d="M170.4 16.3444C170.391 16.6102 170.382 16.8271 170.372 17.1313C170.58 17.1415 170.756 17.1493 170.939 17.1569C170.905 16.6761 170.725 16.4053 170.4 16.3444Z" fill="#D95103"/>
<path d="M176.551 73.0171C176.33 73.0458 176.108 73.0779 175.806 73.1199C176.222 73.6468 176.317 73.64 176.551 73.0171Z" fill="#D95103"/>
<path d="M187.168 66.6479L187.407 66.6396C187.41 66.6046 187.412 66.5732 187.415 66.5382C187.335 66.5131 187.255 66.4845 187.175 66.4594C187.173 66.5223 187.17 66.5851 187.165 66.648L187.168 66.6479Z" fill="#D95103"/>
<path d="M99.3208 3.90592C99.5037 3.91699 99.6866 3.92806 99.8694 3.93565C99.8682 3.90079 99.8669 3.86592 99.8657 3.83105C99.6864 3.85477 99.5048 3.88204 99.3232 3.90583L99.3208 3.90592Z" fill="#D95103"/>
<path d="M166.463 24.6231C166.436 24.46 166.437 24.4112 166.427 24.408C165.871 24.2006 165.365 23.7018 164.772 23.719C164.239 23.7376 163.734 23.5772 163.247 23.2174C163.038 23.0606 162.802 22.9956 162.582 22.8741C162.375 22.7557 162.176 22.6161 161.877 22.4276C161.642 22.5929 161.323 22.8203 160.917 23.1102C161.226 23.3332 161.427 23.5216 161.643 23.6257C162.345 23.9712 163.044 24.3271 163.795 24.3358C164.118 24.3385 164.442 24.5122 164.769 24.574C165.23 24.6592 165.693 24.7268 166.155 24.7734C166.253 24.784 166.357 24.6791 166.463 24.6266L166.463 24.6231Z" fill="white"/>
<path d="M161.444 22.083C160.601 21.5889 159.512 21.6409 159.015 22.1537C159.66 22.4837 160.665 22.4661 161.444 22.083Z" fill="white"/>
<path d="M10.705 33.7106L12.302 33.6548L12.2954 33.4666C11.7567 33.3005 11.2176 33.26 10.6831 33.4845C10.6905 33.561 10.6954 33.6341 10.7027 33.7106L10.705 33.7106Z" fill="white"/>
<path d="M181.836 54.7151C182.163 55.1019 182.403 55.0237 182.695 54.7341C182.404 54.5102 182.166 54.4032 181.836 54.7151Z" fill="white"/>
<path d="M127.305 74.4875L128.146 74.4582C128.147 74.4127 128.147 74.3673 128.148 74.3219C127.862 74.2969 127.578 74.2754 127.292 74.2505C127.294 74.3307 127.299 74.4074 127.305 74.4875Z" fill="white"/>
<path d="M160.274 17.504C160.425 17.4848 160.579 17.4654 160.73 17.4462L160.726 17.3066L160.279 17.3222C160.277 17.3852 160.276 17.4446 160.274 17.5075L160.274 17.504Z" fill="white"/>
<path d="M184.088 64.4879C184.193 64.1664 184.253 64.0735 184.243 63.9935C184.233 63.91 184.158 63.8393 184.111 63.7641C184.063 63.8601 183.987 63.95 183.973 64.0588C183.962 64.1465 184.021 64.2597 184.088 64.4879Z" fill="white"/>
<path d="M109.401 71.2873C109.207 71.315 109.014 71.3427 108.821 71.3704C108.822 71.4088 108.824 71.4472 108.827 71.4855L109.412 71.4651C109.41 71.4058 109.403 71.3466 109.401 71.2839L109.401 71.2873Z" fill="white"/>
<path d="M33.6704 22.9638C33.5323 22.62 33.413 22.6137 33.2646 22.9779L33.6704 22.9638Z" fill="white"/>
<path d="M11.4484 35.6942L11.6668 35.6865C11.6668 35.6865 11.6704 35.6551 11.6721 35.6376C11.6018 35.6226 11.5338 35.6076 11.4636 35.5961C11.4577 35.6276 11.4519 35.6627 11.4461 35.6942L11.4484 35.6942Z" fill="white"/>
</svg>
