<svg width="40" height="40" viewBox="0 0 40 40" fill="none" xmlns="http://www.w3.org/2000/svg">
<rect width="40" height="40" rx="20" fill="#A6AEBB"/>
<g clip-path="url(#clip0_2510_1358)">
<path d="M15.8791 10.1237C14.8204 10.1757 14.0973 10.3524 13.4654 10.6103C12.8113 10.8759 12.2568 11.2319 11.7052 11.8088C11.1529 12.3861 10.8138 12.9647 10.5607 13.6468C10.3157 14.3067 10.1496 15.0603 10.1029 16.1638C10.0565 17.2694 10.0458 17.622 10.051 20.4365C10.0562 23.2508 10.0681 23.604 10.1187 24.7099C10.1693 25.8124 10.3382 26.5654 10.5858 27.2239C10.8412 27.9053 11.1826 28.4826 11.7367 29.0575C12.2906 29.6325 12.8464 29.9854 13.5015 30.2494C14.1344 30.5043 14.8581 30.6779 15.9172 30.7262C16.9785 30.7749 17.3173 30.7857 20.0186 30.7803C22.7212 30.7749 23.06 30.7625 24.1213 30.7101C25.18 30.6574 25.9025 30.4808 26.535 30.2235C27.1892 29.9569 27.7437 29.6019 28.2953 29.0246C28.8469 28.4477 29.186 27.8687 29.4391 27.1863C29.6841 26.5271 29.8508 25.7731 29.8969 24.6706C29.9433 23.5644 29.9543 23.2111 29.9491 20.3969C29.944 17.5823 29.9317 17.2297 29.8814 16.1245C29.8311 15.021 29.6616 14.2684 29.4143 13.6095C29.1586 12.9281 28.8176 12.3512 28.2637 11.7759C27.7098 11.2013 27.154 10.8474 26.4989 10.5844C25.8658 10.3292 25.1423 10.1552 24.0833 10.1075C23.022 10.0585 22.6831 10.0478 19.9809 10.0531C17.2793 10.0585 16.9404 10.0706 15.8791 10.1237ZM15.9952 28.8607C15.0251 28.8167 14.4983 28.6488 14.1473 28.5081C13.6824 28.3207 13.3506 28.096 13.0015 27.735C12.653 27.3727 12.4367 27.0281 12.2552 26.5449C12.1188 26.1791 11.9547 25.6311 11.9092 24.6206C11.8599 23.5281 11.8486 23.2004 11.8438 20.4328C11.8386 17.666 11.8483 17.3382 11.8941 16.2448C11.9357 15.2349 12.0978 14.6855 12.2326 14.3201C12.4125 13.8352 12.6275 13.4903 12.9747 13.1266C13.3226 12.7629 13.6533 12.5382 14.1176 12.3492C14.4684 12.2064 14.9945 12.0368 15.9642 11.9888C17.0136 11.9371 17.3279 11.926 19.9841 11.9207C22.6409 11.9153 22.9556 11.925 24.0053 11.9731C24.9747 12.017 25.5021 12.1843 25.8525 12.3257C26.3177 12.5131 26.6495 12.7364 26.9983 13.0987C27.3471 13.4611 27.5635 13.805 27.745 14.2896C27.882 14.6539 28.0448 15.2027 28.0906 16.2125C28.1405 17.3056 28.1518 17.6334 28.1566 20.4003C28.1618 23.1678 28.1521 23.4956 28.106 24.5883C28.0638 25.5988 27.9029 26.1479 27.7675 26.514C27.5876 26.9979 27.3726 27.3435 27.0251 27.7072C26.6775 28.0695 26.3468 28.2955 25.8822 28.4846C25.5321 28.627 25.0053 28.7969 24.0362 28.8449C22.9868 28.8963 22.6725 28.9081 20.0154 28.9131C17.3592 28.9185 17.0449 28.9081 15.9952 28.8607ZM24.1068 14.8763C24.1081 15.5627 24.6439 16.1185 25.3029 16.1171C25.9621 16.1158 26.4957 15.558 26.4947 14.8716C26.4934 14.1851 25.9576 13.629 25.2984 13.6304C24.6391 13.6317 24.1055 14.1898 24.1068 14.8763ZM14.891 20.4268C14.8965 23.3663 17.1884 25.7439 20.0096 25.7382C22.8311 25.7325 25.1149 23.3458 25.1094 20.4063C25.104 17.4678 22.8118 15.0888 19.9899 15.0946C17.1687 15.1003 14.8855 17.488 14.891 20.4268ZM16.6832 20.4231C16.6799 18.5153 18.1623 16.9654 19.9935 16.9621C21.825 16.9584 23.3131 18.5018 23.3166 20.41C23.3202 22.3182 21.8378 23.8677 20.006 23.8714C18.1749 23.8751 16.6867 22.3313 16.6832 20.4231Z" fill="white"/>
</g>
<defs>
<clipPath id="clip0_2510_1358">
<rect width="20" height="20.8333" fill="white" transform="translate(10 10)"/>
</clipPath>
</defs>
</svg>
