<svg width="202" height="6" viewBox="0 0 202 6" fill="none" xmlns="http://www.w3.org/2000/svg">
<g clip-path="url(#clip0_2513_6301)">
<path d="M0.140076 3.59506C2.00008 4.16506 3.70008 4.06506 5.35008 3.81506C6.26008 3.67506 7.44008 3.39507 8.02008 3.68507C9.24008 4.28507 10.0801 3.59506 11.0801 3.48506C11.9601 3.39506 12.9301 2.96507 13.6801 3.92507C14.0201 4.35507 14.3201 4.16506 14.6901 3.75506C15.6701 2.66506 15.7201 2.69506 16.8301 3.55506C16.9001 3.58506 16.9701 3.61507 17.0501 3.64507C17.0201 3.57507 16.9901 3.50507 16.9601 3.43507C17.2001 3.22507 17.3601 3.38506 17.6001 3.50506C19.0001 4.18506 19.1701 4.08507 19.2401 2.48506C19.6201 2.88506 19.6301 3.45506 20.1701 3.77506C20.8101 3.59506 20.8101 2.71506 21.5001 2.54506C21.9701 2.99506 22.2701 4.21507 23.2701 2.94507C23.5701 2.56507 23.8101 2.91507 23.9601 3.12507C24.1301 3.35507 24.2101 3.64507 24.3101 3.92507C24.7001 4.96507 25.0501 4.25507 25.4101 3.90507C25.4501 3.93507 25.4801 3.96506 25.5201 3.97506C25.5301 3.97506 25.5801 3.92507 25.5801 3.92507C25.5601 3.88507 25.5301 3.85506 25.5001 3.82506C25.3401 3.36506 24.8201 2.87506 25.6401 2.50506C26.3301 2.19506 26.9201 2.08507 27.2701 2.94507C27.4901 3.47506 27.7901 3.52506 28.4101 3.27506C29.1701 2.96506 30.1501 3.44507 30.9201 2.87507C31.0801 3.20507 31.2601 3.49506 31.7101 3.26506C31.8001 3.22506 31.9001 3.05506 31.8801 2.99506C31.7301 2.69506 31.3801 2.75507 31.1201 2.66507C31.1201 2.52507 31.1201 2.37506 31.1001 2.23506C31.5701 2.33506 32.0501 2.43506 32.5201 2.54506C33.5067 2.79173 34.1167 2.40173 34.3501 1.37506L34.2801 1.26506L34.3801 1.34506C34.5101 1.34506 34.6301 1.34506 34.7601 1.34506L34.8501 1.26506L34.7901 1.37506C35.0201 2.87506 35.9101 3.23507 37.3501 2.42507L37.2601 2.33506L37.3801 2.39506C38.1801 2.60506 38.7501 3.26506 39.7001 3.23506C40.6101 3.20506 41.0001 2.87506 41.0801 2.07506C40.5101 1.97506 40.0401 1.66506 39.6601 1.30506C39.3101 0.975065 39.1401 0.495065 38.6001 1.10506C38.4401 1.28506 38.1701 1.08506 37.9401 0.995065C36.1301 0.205065 34.3101 0.245065 32.5001 0.985065C32.3401 1.04506 32.2101 1.27506 32.0401 1.08506C30.9801 -0.094935 31.0201 1.36506 30.5701 1.63506C30.2101 1.63506 29.8301 1.65506 29.4201 1.38506C29.6901 0.915065 30.5701 1.64506 30.4801 0.675065C29.6701 0.445065 28.6801 0.435065 27.8401 0.705065C26.9301 0.995065 26.0801 0.895065 25.2101 0.825065C23.8401 0.715065 22.4501 0.125065 21.1601 1.10506C21.0501 1.19506 20.9801 1.10506 20.8701 1.03506C20.0801 0.515065 19.3601 0.785065 18.6901 1.26506C18.4801 1.41506 18.3601 1.54506 18.0701 1.43506C16.9001 1.00506 14.5401 0.855065 13.0201 1.19506C10.3101 1.79506 7.58008 2.25506 4.80008 2.10506C4.19008 2.07506 4.32007 3.05507 3.68007 2.66507C3.29007 2.42507 2.89007 2.31506 2.45007 2.38506C1.60007 2.50506 0.830071 2.77506 0.120071 3.59506H0.140076ZM22.1901 1.53506C22.1901 1.53506 22.2801 1.43506 22.3201 1.43506C22.6101 1.40506 22.8801 1.13506 23.1801 1.38506C23.2101 1.41506 23.1901 1.49506 23.2001 1.54506C22.9001 1.56506 22.6001 1.59506 22.3001 1.61506C22.2701 1.61506 22.2301 1.56506 22.1901 1.53506ZM18.3501 3.27506L18.4601 3.31506L18.3501 3.36507V3.27506Z" fill="#0C6967"/>
<path d="M41.3803 0.935057C41.4603 0.905057 41.5503 0.865057 41.6303 0.835057C41.6003 0.915057 41.5603 0.995057 41.5303 1.07506C42.1703 1.29506 42.9203 2.05506 43.4403 1.13506C43.8003 0.495057 44.1903 0.535057 44.7603 0.555057C45.5603 0.585057 46.3703 0.555057 47.1703 0.505057C47.5503 0.475057 48.0203 0.395057 48.1903 0.725057C48.5703 1.50506 48.8903 1.07506 49.2503 0.755057C49.6403 0.405057 50.0203 0.265057 50.5803 0.495057C51.1603 0.735057 51.8203 2.27506 52.4803 0.495057C52.5603 0.285057 52.9803 1.11506 53.2703 0.885057C53.9203 0.355057 54.4003 -0.174943 54.7603 1.09506C54.8303 1.35506 55.3803 1.34506 55.6003 1.17506C56.2203 0.685057 56.7703 0.0950568 57.3103 1.24506C57.3303 1.28506 57.6803 1.24506 57.8103 1.16506C58.8703 0.445057 58.9003 0.395057 59.6903 0.935057C60.3103 1.35506 60.6903 1.49506 61.1003 0.685057C61.4303 0.0250567 62.1403 0.205057 62.7303 0.425057C62.9003 0.485057 62.9803 0.715057 62.8003 0.855057C62.6703 0.945057 62.4703 0.945057 62.2903 0.995057L62.1903 0.925057L62.2503 1.02506C62.5103 1.31506 63.1203 1.45506 62.9003 1.97506C62.7103 2.41506 62.3903 2.51506 61.7603 2.49506C60.8103 2.46506 59.8403 2.43506 58.8803 2.45506C57.0303 2.48506 55.1803 2.47506 53.3303 2.52506C52.6503 2.54506 51.9603 3.32506 51.3103 2.31506C51.0903 1.97506 50.4903 2.24506 50.2103 2.61506C49.8203 3.13506 49.5503 3.14506 49.0803 2.63506C48.5203 2.02506 47.8703 1.93506 46.9503 2.25506C46.3403 2.46506 45.6303 2.85506 44.9003 2.73506C43.6303 2.53506 42.3603 2.30506 41.0903 2.08506C41.0503 1.67506 40.9803 1.25506 41.3903 0.945057L41.3803 0.935057Z" fill="#0C6967"/>
<path d="M96.8292 1.67503C96.8792 1.67503 96.9392 1.66503 96.9892 1.65503C96.9592 1.68503 96.9292 1.71503 96.9092 1.75503C97.6092 2.08503 98.3892 2.77503 98.9892 2.65503C99.9992 2.45503 100.769 2.81503 101.629 3.01503C101.729 2.56503 101.009 2.56503 101.029 2.18503C101.979 1.70503 102.639 2.79503 103.309 2.57503C105.189 1.97503 107.059 3.15503 108.909 2.44503C109.129 2.36503 109.359 2.56503 109.509 2.77503L109.419 2.87503L109.529 2.79503C109.769 2.85503 110.149 3.02503 110.209 2.95503C110.879 2.15503 111.719 2.34503 112.539 2.56503C113.229 2.75503 113.859 2.69503 114.529 2.48503C114.989 2.33503 115.779 2.17503 115.889 2.56503C116.139 3.47503 116.559 3.06503 117.029 2.89503C117.369 2.77503 117.729 2.62503 118.079 2.61503C119.389 2.55503 120.679 3.12503 122.009 2.70503C122.199 2.64503 122.449 2.87503 122.519 3.13503C122.399 3.24503 122.289 3.35503 122.169 3.46503L122.099 3.56503L122.209 3.50503C122.319 3.38503 122.429 3.27503 122.539 3.15503C122.909 2.96503 123.269 2.55503 123.649 3.13503L123.559 3.23503L123.659 3.14503C124.429 2.73503 125.129 2.55503 126.079 2.88503C127.159 3.25503 128.379 3.56503 129.559 2.93503C129.839 2.78503 130.159 2.82503 130.399 3.07503C132.479 3.09503 134.529 3.49503 136.629 3.30503C137.179 3.25503 137.809 3.13503 138.429 3.24503C140.529 3.60503 142.629 3.67503 144.769 3.48503C145.859 3.38503 146.969 3.40503 148.079 3.69503C149.179 3.98503 150.419 4.25503 151.509 4.06503C153.909 3.63503 156.239 4.10503 158.599 4.23503C159.219 4.26503 159.799 4.10503 160.429 4.19503C162.549 4.47503 164.699 4.46503 166.829 4.40503C168.229 4.36503 169.629 4.35503 171.009 4.28503C172.089 4.23503 173.049 4.62503 174.079 4.57503C176.189 4.47503 178.299 4.35503 180.419 4.31503C182.539 4.27503 184.669 4.42503 186.789 4.31503C191.279 4.08503 195.759 3.73503 200.239 3.45503C200.659 3.42503 201.109 3.47503 201.519 3.57503C201.819 3.62503 202.039 3.86503 201.999 4.21503C201.959 4.51503 201.689 4.54503 201.459 4.59503C201.279 4.63503 201.089 4.61503 200.909 4.63503C197.599 4.92503 194.279 5.19503 190.969 5.49503C188.329 5.73503 185.679 5.75503 183.039 5.66503C180.339 5.57503 177.629 5.50503 174.949 5.55503C171.889 5.61503 168.839 5.52503 165.789 5.49503C161.969 5.46503 158.139 5.49503 154.329 5.28503C152.019 5.15503 149.629 5.85503 147.389 4.79503C147.149 4.68503 146.909 4.75503 146.669 4.83503C145.999 5.04503 145.319 4.85503 144.659 4.88503C142.309 4.98503 140.009 4.02503 137.589 4.75503C136.709 5.02503 135.489 4.85503 134.589 4.18503C133.569 4.84503 132.469 4.61503 131.369 4.45503C130.659 4.35503 130.239 4.01503 130.259 3.29503C129.479 4.58503 128.339 4.84503 126.879 4.52503C123.999 3.89503 120.969 4.76503 118.109 3.79503C116.489 4.41503 114.839 3.99503 113.189 3.94503C111.049 3.87503 108.909 3.88503 106.759 3.83503C105.729 3.81503 104.729 3.62503 103.669 3.83503C103.089 3.94503 102.149 4.12503 101.759 3.24503C101.509 3.58503 101.269 3.91503 100.739 3.84503C99.2992 3.66503 97.8492 3.46503 96.4092 3.84503C96.1692 3.90503 95.7892 3.78503 95.8292 3.57503C95.9292 3.00503 95.8892 2.50503 95.6792 1.94503C95.6092 1.76503 96.4092 1.73503 96.8292 1.70503V1.67503Z" fill="#0C6967"/>
<path d="M76.6491 0.64511C77.9591 0.99511 79.3691 0.99511 80.5891 1.64511C80.9491 1.78511 81.3391 2.16511 81.5991 1.53511C81.7591 1.16511 82.0291 1.21511 82.3291 1.31511C82.4191 1.19511 82.4891 1.17511 82.5091 1.28511C82.5091 1.31511 82.4491 1.35511 82.4091 1.39511C82.7691 1.70511 83.1191 1.68511 83.4591 1.37511C83.3091 1.30511 83.2891 1.25511 83.3991 1.23511C83.4191 1.23511 83.4591 1.30511 83.4891 1.34511C83.9891 1.32511 84.4891 1.29511 84.6691 1.89511C84.7591 2.21511 85.0391 2.33511 85.3191 2.45511L85.4391 2.52511L85.3491 2.43511C85.3491 2.31511 85.3491 2.19511 85.3391 2.08511C85.3191 2.04511 85.2991 2.01511 85.2791 1.97511C85.2991 2.00511 85.3291 2.04511 85.3491 2.07511C86.4891 1.59511 87.5491 1.43511 88.2691 2.71511C88.8991 2.33511 89.5191 1.95511 90.1491 1.59511C90.6591 1.30511 91.2491 1.15511 91.6391 1.69511C92.1991 2.45511 92.8191 2.36511 93.5891 2.06511C93.8591 1.95511 94.2691 1.68511 94.6191 2.23511C94.1391 2.68511 94.0191 3.76511 93.2491 3.62511C91.6391 3.33511 89.9191 3.75511 88.3991 2.94511C88.3591 3.11511 88.2691 3.32511 88.0791 3.30511C86.9291 3.19511 85.7891 3.24511 84.6291 3.34511C83.9491 3.40511 82.9991 3.49511 82.4591 2.79511C82.2191 2.48511 82.1591 2.52511 81.8191 2.67511C80.6491 3.20511 80.6291 3.17511 80.4291 1.80511C79.7891 2.74511 79.8291 2.67511 78.7791 2.05511C78.3591 1.80511 77.2991 0.91511 77.4291 2.53511C77.4291 2.59511 77.2691 2.71511 77.1691 2.74511C76.6291 2.89511 76.2591 2.31511 75.6891 2.37511C75.5791 2.38511 75.5791 1.61511 75.6691 1.22511C75.7791 0.73511 76.2391 0.53511 76.6591 0.64511H76.6491Z" fill="#0C6967"/>
<path d="M64.8503 0.605039C65.2403 0.965039 65.6103 1.34504 65.9903 1.71504C65.6503 0.385039 65.8803 0.0850393 67.1603 0.295039C67.5203 0.355039 68.0603 0.445039 68.1603 0.665039C68.5103 1.42504 69.0003 1.10504 69.5303 0.985039C70.1903 0.835039 70.8703 0.785039 71.5103 0.615039C72.1903 0.425039 72.6103 0.345039 72.3603 1.26504C72.3303 1.37504 72.7503 2.01504 73.3303 1.85504C73.6203 1.77504 73.9803 1.61504 74.0303 2.07504C74.0703 2.43504 73.6903 2.54504 73.4103 2.62504C73.1203 2.70504 72.7803 2.79504 72.5103 2.72504C71.7203 2.51504 70.6803 3.25504 70.2103 2.61504C69.3703 1.47504 68.8203 2.57504 68.1503 2.61504C67.9603 2.62504 67.7603 2.36504 67.5503 2.23504C67.0803 1.94504 66.5903 1.69504 66.0003 1.72504C66.5303 2.60504 65.5503 2.24504 65.3003 2.47504C64.5703 3.13504 64.4703 2.21504 64.0703 2.00504C63.5403 1.72504 63.4803 1.34504 63.7203 0.845039C63.9903 0.305039 64.3503 0.155039 64.8403 0.595039L64.8503 0.605039Z" fill="#0C6967"/>
<path d="M54.4695 3.63506C54.6795 3.71506 54.9295 3.83506 54.9395 4.09506C54.9395 4.36506 54.7094 4.49506 54.4794 4.55506C54.2494 4.61506 53.9994 4.59506 53.7594 4.61506C53.6994 4.61506 53.6395 4.61506 53.5795 4.61506C53.6095 4.57506 53.6295 4.54506 53.6595 4.50506C53.3395 4.06506 52.5495 4.47506 52.2695 3.69506C53.0395 3.57506 53.7394 3.35506 54.4794 3.62506L54.4695 3.63506Z" fill="#0C6967"/>
<path d="M22.0198 3.95499C22.6798 4.20499 23.3098 4.49499 23.5098 5.36499C22.8398 5.18499 22.2798 5.04499 21.7398 4.87499C21.3898 4.76499 21.3198 4.46499 21.4298 4.17499C21.5198 3.94499 21.7598 3.85499 22.0198 3.95499Z" fill="#0C6967"/>
<path d="M62.3104 3.41506C62.6304 3.46506 62.9704 3.56506 62.9304 3.92506C62.9004 4.26506 62.5804 4.38506 62.2404 4.31506C61.8604 4.24506 61.5304 4.09506 61.5504 3.62506C61.6904 3.20506 62.0204 3.36506 62.3104 3.40506V3.41506Z" fill="#0C6967"/>
<path d="M19.1008 4.58505C19.2708 4.61505 19.4508 4.76505 19.3608 4.96505C19.1808 5.37505 18.7708 5.26505 18.4208 5.30505C18.3208 5.42505 18.2508 5.43505 18.2308 5.32505C18.2308 5.29505 18.2908 5.25505 18.3308 5.21505C18.2008 4.98505 17.7008 4.85505 17.9508 4.52505C18.2908 4.08505 18.7208 4.50505 19.1008 4.57505V4.58505Z" fill="#0C6967"/>
<path d="M20.3606 4.34501C20.6706 4.53501 20.9006 4.81501 20.8506 5.19501C20.8306 5.38501 20.6206 5.51501 20.4606 5.42501C20.1406 5.23501 20.0006 4.91501 19.9706 4.56501C20.0306 4.36501 20.1906 4.23501 20.3606 4.33501V4.34501Z" fill="#0C6967"/>
<path d="M29.5097 4.00523C30.0597 4.04523 29.7197 4.57523 29.8997 4.83523C30.1097 5.13523 29.9197 5.28523 29.6097 5.21523C29.2497 5.14523 29.1697 4.85523 29.1897 4.52523C29.2397 4.32523 29.1897 3.97523 29.5197 4.00523H29.5097Z" fill="#0C6967"/>
<path d="M15.9299 4.5351C16.0799 4.6851 16.1299 4.9251 16.2199 5.1151C16.5199 5.1851 16.7099 4.3151 16.9399 4.9251C17.1099 5.3651 16.6999 5.8051 16.0799 5.3251C15.9199 5.2451 15.7699 5.1451 15.6099 5.1051C15.3399 5.0351 14.9499 5.0251 15.1799 4.6151C15.3399 4.3351 15.6699 4.2851 15.9199 4.5251L15.9299 4.5351Z" fill="#0C6967"/>
<path d="M33.7794 3.89502C33.9794 3.93502 34.1294 4.02502 34.0194 4.24502C33.9694 4.33502 33.8394 4.42502 33.7294 4.43502C33.5294 4.46502 33.3694 4.36502 33.3794 4.15502C33.3994 3.95502 33.5794 3.89502 33.7694 3.89502H33.7794Z" fill="#0C6967"/>
<path d="M71.0509 3.49511C71.2209 3.53511 71.4209 3.59511 71.3209 3.80511C71.2609 3.93511 71.1009 4.07511 70.9609 4.10511C70.7909 4.14511 70.6209 4.02511 70.6009 3.83511C70.5609 3.51511 70.8209 3.50511 71.0609 3.48511L71.0509 3.49511Z" fill="#0C6967"/>
<path d="M39.5197 3.63516C39.7297 3.58516 39.8597 3.72516 39.8297 3.93516C39.7997 4.12516 39.6197 4.18516 39.4397 4.20516C39.2397 4.20516 39.0497 4.12516 39.1297 3.91516C39.1797 3.79516 39.3697 3.67516 39.5197 3.63516Z" fill="#0C6967"/>
<path d="M78.4305 2.34515C78.5205 2.52515 78.4405 2.67515 78.2205 2.66515C78.1405 2.66515 78.0705 2.54515 77.9905 2.47515C78.0405 2.38515 78.0805 2.23515 78.1405 2.22515C78.2305 2.20515 78.3905 2.27515 78.4305 2.34515Z" fill="#0C6967"/>
<path d="M84.5294 4.02505C84.5294 4.02505 84.6094 4.10505 84.6494 4.15505C84.7994 4.22505 84.9594 4.28505 85.1094 4.35505C85.0694 4.39505 85.0194 4.47505 85.0094 4.47505C84.8594 4.41505 84.7094 4.33505 84.5594 4.26505C84.2894 4.34505 83.9994 4.51505 83.7794 4.18505C83.7494 4.13505 83.8194 3.95505 83.8894 3.92505C84.1194 3.81505 84.3394 3.88505 84.5294 4.03505V4.02505Z" fill="#0C6967"/>
<path d="M73.0495 3.98511C73.1295 4.04511 73.2695 4.08511 73.2895 4.16511C73.3095 4.24511 73.2395 4.41511 73.1795 4.43511C72.9895 4.48511 72.8395 4.38511 72.8495 4.18511C72.8495 4.11511 72.9795 4.05511 73.0595 3.99511L73.0495 3.98511Z" fill="#0C6967"/>
<path d="M74.9401 0.555147C75.0501 0.465147 75.1801 0.515147 75.2001 0.645147C75.2101 0.735147 75.1501 0.875147 75.0801 0.905147C75.0201 0.935147 74.8901 0.855147 74.8001 0.815147C74.8501 0.725147 74.8701 0.605147 74.9401 0.545147V0.555147Z" fill="#0C6967"/>
<path d="M13.2004 5.39502C13.2704 5.47502 13.4004 5.54502 13.4004 5.62502C13.4004 5.77502 13.2904 5.81502 13.1504 5.72502C13.1004 5.69502 13.0604 5.64502 13.0404 5.59502C12.9904 5.46502 13.0404 5.39502 13.2004 5.39502Z" fill="#0C6967"/>
<path d="M58.6308 3.54517C58.7408 3.54517 58.8908 3.54517 58.9408 3.61517C59.0208 3.70517 58.9308 3.79517 58.7808 3.81517C58.6908 3.76517 58.6008 3.70517 58.5108 3.65517C58.5508 3.61517 58.5908 3.54517 58.6308 3.54517Z" fill="#0C6967"/>
<path d="M65.0096 3.4852C65.1196 3.5952 65.0796 3.7352 64.9296 3.7552C64.8296 3.7652 64.7196 3.6752 64.6096 3.6352C64.6396 3.5352 64.6696 3.4252 64.6996 3.3252C64.7996 3.3752 64.9296 3.4052 65.0096 3.4852Z" fill="#0C6967"/>
<path d="M10.8596 4.8251C10.9496 4.8451 11.0196 4.9551 11.0996 5.0251C10.9896 5.0751 10.9096 5.1351 10.8096 5.1551C10.7896 5.1551 10.7096 5.0851 10.6996 5.0351C10.6596 4.9051 10.7296 4.7951 10.8596 4.8151V4.8251Z" fill="#0C6967"/>
<path d="M74.8108 2.11519C74.8908 2.32519 74.9108 2.55519 74.9508 2.77519C74.9808 2.80519 75.0208 2.83519 75.0508 2.85519C75.0308 2.87519 75.0108 2.88519 75.0008 2.90519C74.9708 2.87519 74.9408 2.84519 74.9108 2.81519C74.6908 2.67519 74.5508 2.49519 74.5908 2.24519C74.6108 2.10519 74.7808 2.04519 74.8108 2.12519V2.11519Z" fill="#0C6967"/>
<path d="M47.8494 4.01506C47.8494 4.01506 47.7894 4.08506 47.7594 4.08506C47.7194 4.08506 47.6794 4.05506 47.6494 4.03506C47.7094 3.93506 47.7794 3.92506 47.8594 4.01506H47.8494Z" fill="#0C6967"/>
<path d="M46.1794 3.85512C46.1794 3.85512 46.1295 3.94512 46.1095 3.98512C46.0795 3.94512 46.0394 3.91512 46.0094 3.87512C46.0394 3.83512 46.0594 3.78512 46.0894 3.74512C46.1194 3.78512 46.1795 3.81512 46.1895 3.85512H46.1794Z" fill="#0C6967"/>
<path d="M59.9509 3.80505C59.9509 3.80505 59.9309 3.91505 59.9009 3.94505C59.8909 3.96505 59.8109 3.92505 59.7709 3.91505C59.7909 3.86505 59.7909 3.80505 59.8209 3.77505C59.8409 3.75505 59.9109 3.79505 59.9609 3.80505H59.9509Z" fill="#0C6967"/>
<path d="M66.9902 3.87513L66.8602 3.89513L66.9102 3.75513L66.9902 3.87513Z" fill="#0C6967"/>
<path d="M75.2706 3.60498C75.2706 3.60498 75.3506 3.64498 75.3906 3.66498C75.3606 3.69498 75.3306 3.72498 75.2906 3.74498C75.2506 3.72498 75.2106 3.70498 75.1706 3.68498C75.2006 3.65498 75.2306 3.61498 75.2706 3.60498Z" fill="#0C6967"/>
<path d="M76.3398 3.76504C76.3098 3.85504 76.2598 3.93504 76.2198 4.01504C76.1798 3.98504 76.0998 3.93504 76.0998 3.91504C76.1298 3.82504 76.1798 3.74504 76.2198 3.66504C76.2598 3.69504 76.3398 3.74504 76.3298 3.76504H76.3398Z" fill="#0C6967"/>
<path d="M94.719 3.21508C94.849 3.29508 94.839 3.38508 94.679 3.42508C94.639 3.43508 94.579 3.39508 94.529 3.37508C94.529 3.33508 94.529 3.26508 94.559 3.24508C94.599 3.21508 94.679 3.19508 94.719 3.21508Z" fill="#0C6967"/>
<path d="M22.1797 5.47498C22.1797 5.47498 22.0797 5.50498 22.0397 5.52498C22.0297 5.48498 21.9897 5.42498 21.9997 5.40498C22.0297 5.37498 22.0897 5.36498 22.1397 5.35498C22.1497 5.39498 22.1697 5.43498 22.1797 5.47498Z" fill="#0C6967"/>
<path d="M36.6498 4.17518C36.6498 4.17518 36.7298 4.24518 36.7598 4.27518C36.7398 4.29518 36.7098 4.32518 36.6898 4.34518C36.6498 4.30518 36.6198 4.27518 36.5798 4.23518C36.5398 4.19518 36.4998 4.16518 36.4598 4.12518C36.4898 4.10518 36.5098 4.07518 36.5398 4.05518C36.5798 4.09518 36.6098 4.13518 36.6498 4.17518Z" fill="#0C6967"/>
<path d="M78.8006 4.04517C78.7606 4.10517 78.7105 4.17517 78.6705 4.23517C78.6205 4.23517 78.5705 4.25517 78.5205 4.26517C78.5505 4.23517 78.5805 4.20517 78.6105 4.17517C78.6805 4.13517 78.7505 4.09517 78.8105 4.04517H78.8006Z" fill="#0C6967"/>
<path d="M26.4991 4.07513C26.4991 4.07513 26.5791 4.12513 26.6191 4.14513C26.9791 4.05513 27.2791 3.62513 27.7891 4.05513C27.3791 4.40513 27.0491 4.80513 26.5191 4.23513C26.4891 4.19513 26.4591 4.16513 26.4391 4.12513C26.4391 4.11513 26.4891 4.06513 26.4991 4.06513V4.07513Z" fill="#0C6967"/>
</g>
<defs>
<clipPath id="clip0_2513_6301">
<rect width="201.86" height="5.55" fill="white" transform="matrix(-1 0 0 1 202 0.225098)"/>
</clipPath>
</defs>
</svg>
