<svg width="40" height="40" viewBox="0 0 40 40" fill="none" xmlns="http://www.w3.org/2000/svg">
<rect width="40" height="40" rx="20" fill="#A6AEBB"/>
<path d="M14.1973 12.964C14.197 13.5287 13.9756 14.0703 13.5819 14.4694C13.1881 14.8686 12.6542 15.0927 12.0976 15.0924C11.541 15.0921 11.0073 14.8675 10.6139 14.4679C10.2206 14.0684 9.99972 13.5266 10 12.9618C10.0003 12.397 10.2217 11.8555 10.6154 11.4563C11.0092 11.0572 11.5431 10.8331 12.0997 10.8334C12.6563 10.8337 13.19 11.0583 13.5833 11.4578C13.9767 11.8574 14.1976 12.3992 14.1973 12.964ZM14.2602 16.6693H10.063V30H14.2602V16.6693ZM20.8919 16.6693H16.7156V30H20.8499V23.0046C20.8499 19.1076 25.8552 18.7456 25.8552 23.0046V30H30V21.5565C30 14.987 22.5918 15.2319 20.8499 18.4581L20.8919 16.6693Z" fill="white"/>
</svg>
