<svg width="40" height="40" viewBox="0 0 40 40" fill="none" xmlns="http://www.w3.org/2000/svg">
<path d="M0 23.7012C0.112305 23.0391 0.195312 22.3701 0.341797 21.7158C0.842773 19.4922 1.83301 17.4883 3.17383 15.6553C5.21183 12.856 7.91402 10.6075 11.0371 9.1123C11.3682 8.95117 11.5752 8.75293 11.6582 8.3877C11.7471 8.04926 11.8567 7.7166 11.9863 7.3916C12.6357 5.60938 14.4473 4.67187 16.2832 5.16309C16.3809 5.18945 16.4785 5.20703 16.5957 5.23145C17.1816 3.62305 18.292 2.69824 20.0186 2.70508C21.7275 2.71191 22.8232 3.63672 23.377 5.1582C23.9629 5.12305 24.5215 5.01855 25.0635 5.07324C26.3955 5.20605 27.3662 5.90527 27.9082 7.13867C28.0911 7.58237 28.2483 8.03625 28.3789 8.49805C28.4114 8.62154 28.4718 8.73594 28.5554 8.83244C28.6391 8.92894 28.7437 9.00497 28.8613 9.05469C31.1797 10.1586 33.2769 11.6766 35.0498 13.5342C37.4375 16.04 39.1514 18.917 39.7959 22.3584C39.8799 22.8018 39.9326 23.252 40 23.6982V25.4141C39.97 25.5127 39.9465 25.6132 39.9297 25.7148C39.798 27.0885 39.3794 28.4193 38.7012 29.6211C37.2314 32.2266 34.9453 33.8838 32.2783 35.084C29.0039 36.5586 25.5273 37.1572 21.9717 37.3301C18.9443 37.4736 15.9355 37.3242 12.957 36.7217C10.0625 36.1357 7.31055 35.1904 4.87207 33.4844C2.55371 31.8623 0.914063 29.7471 0.274414 26.9414C0.15918 26.4414 0.0898438 25.9268 0 25.417V23.7012ZM19.9092 35.0586C22.2852 35.04 24.5518 34.8564 26.7871 34.375C29.3262 33.833 31.7373 32.9971 33.8906 31.4941C36.9707 29.3457 38.2803 25.8857 37.3926 22.2334C36.7725 19.6807 35.4893 17.502 33.749 15.5713C31.9592 13.5818 29.7677 11.9945 27.3193 10.9141C27.0841 10.8206 26.874 10.6734 26.706 10.4841C26.5379 10.2949 26.4165 10.0688 26.3516 9.82422C26.2041 9.31348 26.0264 8.81152 25.8535 8.30859C25.4883 7.25293 24.5117 7.03809 23.7305 7.84375C22.9687 8.63184 21.9961 8.41699 21.6338 7.37891C21.4541 6.86426 21.292 6.34375 21.1064 5.83203C20.9111 5.29102 20.5205 5.01172 19.9941 5.0127C19.4678 5.01367 19.0811 5.29297 18.8848 5.83496C18.6992 6.34766 18.5371 6.86816 18.3574 7.38281C17.9961 8.41699 17.0186 8.62988 16.2598 7.8418C15.4854 7.03809 14.5068 7.25586 14.1416 8.31836C13.9727 8.80664 13.7959 9.29492 13.6533 9.79785C13.498 10.3535 13.165 10.7012 12.6328 10.9375C10.5328 11.8641 8.62213 13.1709 6.99707 14.792C4.66504 17.1221 2.94629 19.7998 2.44922 23.126C2.08691 25.5547 2.58887 27.7783 4.16699 29.7061C5.63184 31.4912 7.57422 32.5732 9.69238 33.3701C13.0186 34.6182 16.4814 35.0264 19.9092 35.0586Z" fill="#D95103"/>
<path d="M12.9303 16.377C12.4137 16.3154 12.0514 16.0947 11.8395 15.6602C11.6276 15.2256 11.6628 14.7744 11.9967 14.4258C12.8151 13.5742 13.6501 12.7354 14.5085 11.9238C14.945 11.5107 15.6432 11.5791 16.0632 12.0039C16.4831 12.4287 16.5514 13.1104 16.1276 13.5537C15.3132 14.4102 14.4675 15.2402 13.6149 16.0547C13.4411 16.2197 13.1608 16.2725 12.9303 16.377Z" fill="#D95103"/>
<path d="M27.0591 16.3984C26.7945 16.2549 26.4849 16.1582 26.2779 15.958C25.4849 15.208 24.7154 14.4326 23.9556 13.6504C23.4761 13.1621 23.482 12.4785 23.9361 12.0088C24.3902 11.5391 25.1079 11.5312 25.6109 12.0176C26.3921 12.7783 27.1626 13.5518 27.9292 14.3291C28.1029 14.4894 28.2212 14.7006 28.2674 14.9324C28.3135 15.1641 28.2851 15.4046 28.1861 15.6191C28.0073 16.0479 27.5757 16.3213 27.0591 16.3984Z" fill="#D95103"/>
<path d="M21.1714 13.9766C21.1714 14.3672 21.1812 14.7578 21.1714 15.1484C21.1509 15.8271 20.6646 16.3154 20.0171 16.3203C19.3521 16.3271 18.8452 15.832 18.8345 15.1357C18.8208 14.3701 18.8208 13.6042 18.8345 12.8379C18.8472 12.1621 19.3433 11.666 19.9878 11.666C20.6479 11.6582 21.1528 12.1543 21.1714 12.8525C21.1802 13.2227 21.1714 13.5996 21.1714 13.9766Z" fill="#D95103"/>
</svg>
