<svg width="16" height="17" viewBox="0 0 16 17" fill="none" xmlns="http://www.w3.org/2000/svg">
<g clip-path="url(#clip0_2517_323)">
<path d="M6.63514 8.51857C5.96994 9.00055 5.32242 9.46939 4.65491 9.95292C6.36214 11.7996 8.49157 13.0831 10.6718 14.3325C10.4895 14.676 10.3111 15.0149 10.1304 15.353C10.0035 15.5913 9.87427 15.8288 9.74508 16.0663C9.63741 16.2644 9.55128 16.2845 9.37056 16.1359C8.65921 15.5549 7.93941 14.9847 7.24267 14.3859C6.02838 13.3423 4.87715 12.2313 3.85973 10.9881C3.23913 10.2291 2.66775 9.43612 2.29246 8.52089C2.18865 8.26791 2.11097 7.99481 2.0756 7.72403C1.99254 7.0819 2.31861 6.5829 2.94844 6.44132C3.33065 6.35545 3.73438 6.35158 4.12966 6.34152C4.48111 6.33224 4.83409 6.35777 5.18553 6.38252C5.3155 6.39181 5.38394 6.34539 5.40547 6.23012C5.49929 5.71873 5.64618 5.2089 5.6654 4.69442C5.69232 3.96332 5.62388 3.22835 5.59542 2.49493C5.59388 2.4578 5.58004 2.42144 5.56774 2.36806C5.48853 2.36806 5.41239 2.36806 5.33703 2.36806C3.85051 2.36806 2.36398 2.36574 0.87669 2.37192C0.725961 2.37192 0.649828 2.32783 0.585999 2.19012C0.41143 1.80793 0.219174 1.43658 0.0361467 1.06059C-0.0492149 0.886517 0.0192282 0.77898 0.213791 0.771243C0.252243 0.769696 0.290694 0.771243 0.329145 0.771243C5.24398 0.771243 10.1588 0.772017 15.0736 0.766602C15.259 0.766602 15.3574 0.813021 15.4351 0.99096C15.5966 1.36231 15.7896 1.71974 15.9673 2.08413C16.0465 2.24659 15.9788 2.358 15.7988 2.36496C15.7027 2.36883 15.6066 2.36574 15.5104 2.36574C12.8258 2.36574 10.1404 2.36574 7.45569 2.36574H7.24498C7.29343 3.3885 7.34034 4.39115 7.38802 5.4054C7.41109 5.39148 7.45338 5.37214 7.48953 5.34429C8.63922 4.42132 9.86658 4.40198 11.1432 5.0356C12.0414 5.48122 12.7027 6.19607 13.2872 6.99061C14.1016 8.09848 14.7522 9.3046 15.3843 10.5223C15.4412 10.6314 15.4266 10.6918 15.3236 10.7567C15.1336 10.8759 14.9475 11.0028 14.7653 11.1335C14.6461 11.2186 14.5853 11.1954 14.5169 11.0639C14.1301 10.3158 13.7509 9.56145 13.3356 8.82958C12.9627 8.17275 12.5159 7.56311 11.9222 7.08577C10.9509 6.30439 9.87965 6.14115 8.73535 6.64247C8.27009 6.84594 7.95248 7.21729 7.79868 7.71398C7.47722 8.75221 8.19319 9.54134 9.24982 9.3162C9.78507 9.2017 10.1619 8.86594 10.4595 8.42728C10.5848 8.2416 10.6894 8.042 10.8163 7.82693C11.0217 7.98321 11.2285 8.13948 11.4346 8.29808C11.6077 8.43115 11.7745 8.57273 11.9537 8.69728C12.0606 8.77155 12.086 8.84582 12.0483 8.97193C11.8291 9.70225 11.35 10.2098 10.6956 10.554C9.67279 11.0917 8.7315 10.8349 7.8502 10.2036C7.26497 9.78426 6.85508 9.22491 6.63591 8.52012L6.63514 8.51857Z" fill="#101828"/>
</g>
<defs>
<clipPath id="clip0_2517_323">
<rect width="16" height="16" fill="white" transform="translate(0 0.5)"/>
</clipPath>
</defs>
</svg>
