<svg width="56" height="56" viewBox="0 0 56 56" fill="none" xmlns="http://www.w3.org/2000/svg">
<g clip-path="url(#clip0_2513_6095)">
<path d="M0 54.7966C0.435716 53.0691 0.8736 51.3423 1.30787 49.6141C1.48563 48.9082 1.64821 48.1987 1.83319 47.4943C2.00299 46.8484 2.42065 46.5644 2.97848 46.6873C3.51536 46.8058 3.78343 47.2891 3.63314 47.9198C3.21621 49.6726 2.78844 51.4232 2.36573 53.1746C2.3455 53.2584 2.3296 53.3436 2.28841 53.5402C4.90921 52.5489 7.44764 51.5887 9.93837 50.6473C9.14354 49.6726 8.30101 48.7608 7.59649 47.7522C5.97863 45.4388 5.23148 42.8176 5.04434 40.0179C4.94968 38.6004 4.80733 37.1857 4.70545 35.7682C4.64836 34.9763 4.97063 34.5501 5.58627 34.532C6.18457 34.5147 6.49817 34.899 6.5697 35.6562C6.77708 37.8497 6.87102 40.0641 7.25254 42.228C7.79159 45.2842 9.45786 47.74 11.8482 49.7023C11.9349 49.7738 12.1162 49.8099 12.2196 49.7709C15.7277 48.4516 19.2315 47.1208 22.7353 45.7907C22.7447 45.787 22.7461 45.7639 22.7663 45.709C22.5214 45.5782 22.2692 45.4439 22.017 45.3102C13.7218 40.9145 8.71143 34.092 6.92594 24.8874C6.88836 24.6923 6.86885 24.4878 6.87897 24.2899C6.90354 23.8304 7.26988 23.4749 7.72583 23.4395C8.21719 23.4012 8.60666 23.7487 8.73311 24.3253C8.95061 25.3202 9.11246 26.3324 9.40439 27.3056C11.8641 35.5124 17.0702 41.2657 24.9529 44.6036C25.1574 44.6903 25.4356 44.769 25.6242 44.6997C27.7225 43.9273 29.8101 43.1254 31.9489 42.3126C31.0731 41.9217 30.2335 41.5995 29.4423 41.1855C25.0858 38.9067 21.301 35.8852 17.9619 32.2886C15.1359 29.244 12.5772 26.0094 10.7715 22.2373C10.1241 20.8848 9.6385 19.4795 9.4463 17.9803C9.08501 15.1684 10.8365 13.1396 13.5607 13.2415C13.7594 13.2487 13.961 13.2769 14.1546 13.3224C14.6879 13.4474 14.9625 13.8433 14.8946 14.3621C14.8295 14.8541 14.4184 15.1705 13.8793 15.1402C13.6799 15.1293 13.479 15.0947 13.2803 15.1019C12.0404 15.1467 11.3192 15.8605 11.2759 17.0953C11.2354 18.2484 11.5671 19.3292 11.9883 20.3819C13.151 23.2892 14.9054 25.8353 16.8759 28.2383C20.6449 32.8341 24.9861 36.7609 30.292 39.5331C31.6375 40.2361 33.0386 40.7989 34.5712 40.9362C34.8949 40.9651 35.228 40.9564 35.5502 40.916C36.4976 40.7953 36.9983 40.2578 37.098 39.2969C37.2078 38.237 36.9398 37.237 36.6146 36.2458C36.5351 36.0044 36.4332 35.7624 36.408 35.5139C36.3588 35.0385 36.5835 34.696 37.0445 34.558C37.4998 34.4214 37.9304 34.5515 38.1111 34.9879C38.8048 36.6576 39.2723 38.3778 38.8192 40.1985C38.5316 41.3538 37.7881 42.1449 36.6674 42.5662C32.2907 44.2106 27.9104 45.8456 23.5359 47.4965C16.2154 50.2593 8.89786 53.0315 1.58028 55.8023C1.4495 55.8521 1.33027 55.9331 1.20526 55.9995H0C0 55.5985 0 55.1976 0 54.7966Z" fill="#D95103"/>
<path d="M54.0388 55.9992C53.2975 55.5137 53.218 55.1929 53.6132 54.3613C54.2448 53.0312 54.2585 51.6931 53.6371 50.355C53.5655 50.2004 53.4644 50.0595 53.3798 49.9172C53.1905 50.5776 53.0763 51.2256 52.822 51.813C52.2382 53.1655 51.1637 53.9227 49.6968 54.026C48.1585 54.1344 46.9481 53.4921 46.193 52.1519C45.4524 50.8377 45.5044 49.4945 46.36 48.2302C47.1136 47.1161 48.165 46.4015 49.4613 46.0439C49.5812 46.0107 49.6976 45.9659 49.8666 45.9102C48.6368 44.5158 47.2047 43.4725 45.5319 42.7912C44.711 42.4574 43.8403 42.2385 42.9804 42.0131C42.3128 41.8382 41.9356 41.4373 42.0375 40.9005C42.148 40.3196 42.6495 40.0363 43.3468 40.1765C47.2112 40.9546 50.2511 42.9776 52.4911 46.2202C52.7122 46.5403 52.9954 46.8408 53.309 47.0706C55.88 48.9519 56.7145 52.6042 55.1718 55.3807C55.0382 55.6213 54.7838 55.7947 54.5858 55.9999H54.0388V55.9992ZM51.5134 49.6557C51.4896 49.6463 51.4657 49.6376 51.4419 49.6282C51.4195 49.3746 51.4209 49.116 51.3696 48.8689C51.163 47.8805 50.6658 47.5965 49.7055 47.913C48.936 48.1666 48.316 48.6261 47.873 49.3089C47.2914 50.2048 47.5652 51.3918 48.4706 51.9279C49.3825 52.4683 50.5834 52.1634 51.0524 51.2054C51.2858 50.7278 51.3653 50.1744 51.5141 49.6557H51.5134Z" fill="#D95103"/>
<path d="M0 4.04519C0.257239 3.60591 0.626477 3.39206 1.14818 3.34943C1.81801 3.29452 2.4864 3.1847 3.14395 3.0467C3.35422 3.00263 3.60279 2.83357 3.70684 2.64933C4.06524 2.01714 4.37378 1.35606 4.6881 0.700033C4.87814 0.30266 5.17079 0.0497864 5.61517 0.0483414C6.06028 0.0476189 6.35365 0.30266 6.54369 0.697866C6.85874 1.35389 7.16222 2.01714 7.51845 2.65077C7.62178 2.83429 7.87179 3.00407 8.08134 3.04526C8.81259 3.18976 9.55468 3.27935 10.2939 3.3805C10.7079 3.43685 11.0244 3.62181 11.1501 4.03363C11.273 4.43679 11.1516 4.77853 10.8445 5.07114C10.291 5.59928 9.73316 6.12526 9.21146 6.68447C9.07778 6.82825 8.99541 7.09991 9.01997 7.29715C9.10813 8.00014 9.25192 8.69663 9.37621 9.396C9.4528 9.82806 9.44991 10.2413 9.05683 10.5354C8.64712 10.8424 8.2432 10.7391 7.83205 10.5123C7.22653 10.1785 6.62245 9.83745 5.99236 9.55495C5.78281 9.46103 5.45982 9.45452 5.25244 9.54917C4.57466 9.85768 3.94601 10.2803 3.25812 10.5578C2.94957 10.682 2.50302 10.6647 2.19375 10.5347C1.81368 10.375 1.75226 9.95377 1.82885 9.53906C1.95747 8.84113 2.04852 8.13597 2.19159 7.44093C2.26963 7.06378 2.18725 6.80946 1.89966 6.53708C1.24284 5.91429 0.630813 5.24309 0 4.59212C0 4.41005 0 4.22726 0 4.04519ZM4.00743 8.06372C5.11081 7.15048 6.15277 7.25452 7.25182 8.05794C6.67809 6.70976 7.14488 5.76257 8.22658 4.95771C6.78431 5.06536 6.0032 4.3761 5.59928 3.06765C5.24594 4.43895 4.37884 5.02129 2.98787 4.99311C4.16495 5.75679 4.44026 6.75455 4.00671 8.06372H4.00743Z" fill="#D95103"/>
<path d="M50.4035 18.6021C50.3826 19.1837 50.0263 19.4358 49.5921 19.6417C47.3232 20.7154 45.0579 21.7948 42.7911 22.8735C38.7021 24.8191 34.613 26.7648 30.5253 28.7148C30.1279 28.9041 29.6987 29.053 29.3533 28.7257C29.1445 28.5284 29.0036 28.1766 28.9819 27.884C28.9472 27.4201 29.3338 27.2092 29.7095 27.0307C32.4864 25.7121 35.2611 24.3914 38.0366 23.0707C41.6495 21.3512 45.2617 19.6294 48.8753 17.9128C49.5285 17.6028 50.0755 17.7481 50.3096 18.2805C50.3602 18.3954 50.3804 18.524 50.4028 18.6028L50.4035 18.6021Z" fill="#D95103"/>
<path d="M23.4296 12.5116C23.3343 16.2447 22.59 19.8182 21.1665 23.2544C20.7626 24.2283 20.3551 25.2008 19.9468 26.1726C19.6224 26.9442 19.1599 27.2144 18.5891 26.9695C18.0515 26.739 17.9323 26.2116 18.2198 25.4753C18.9547 23.5976 19.7864 21.7487 20.384 19.8283C21.6731 15.6841 21.8002 11.4567 20.9447 7.20124C20.9122 7.04084 20.8789 6.88045 20.8558 6.71789C20.7771 6.15795 21.0632 5.71506 21.5712 5.60307C22.0611 5.4947 22.5228 5.79309 22.6601 6.35014C22.7866 6.86166 22.9051 7.37969 22.9636 7.90206C23.1356 9.43664 23.2765 10.9756 23.4296 12.5123V12.5116Z" fill="#D95103"/>
<path d="M47.592 33.5252C47.5725 34.278 46.9662 34.653 46.2487 34.4334C45.206 34.114 44.1763 33.7434 43.1199 33.4775C38.9196 32.419 34.6896 32.3865 30.443 33.1936C29.6922 33.3359 28.9378 33.4652 28.1806 33.5664C27.6401 33.6386 27.213 33.3193 27.1249 32.8403C27.0273 32.3136 27.3178 31.836 27.8605 31.7406C30.8556 31.2146 33.8485 30.6641 36.9122 30.7609C40.3047 30.8678 43.6019 31.4675 46.7928 32.6351C47.2617 32.8063 47.5891 33.0678 47.592 33.5252Z" fill="#D95103"/>
<path d="M37.7837 10.2536C38.5308 10.2536 39.278 10.2449 40.0251 10.2565C40.7101 10.2673 41.0483 10.5795 41.0555 11.2535C41.0714 12.7657 41.0707 14.2786 41.0548 15.7908C41.0476 16.4346 40.7159 16.7763 40.0699 16.785C38.5575 16.8052 37.0445 16.8052 35.5328 16.7864C34.8623 16.7778 34.5342 16.4338 34.5277 15.754C34.5133 14.2599 34.5125 12.7657 34.5277 11.2716C34.5349 10.5693 34.8724 10.2652 35.5964 10.2565C36.3255 10.2478 37.0546 10.2543 37.7829 10.2551L37.7837 10.2536ZM39.1595 14.8913V12.1567H36.4339V14.8913H39.1595Z" fill="#D95103"/>
<path d="M23.2809 28.091C23.0157 27.8808 22.6725 27.7334 22.5561 27.4812C22.4391 27.2276 22.5157 26.8635 22.5727 26.5608C22.598 26.4257 22.7751 26.3122 22.8965 26.2031C25.8352 23.5552 28.7754 20.9094 31.7156 18.2629C31.7965 18.1899 31.8774 18.1155 31.962 18.0461C32.4511 17.6408 32.949 17.6365 33.3269 18.0324C33.7084 18.4327 33.6781 19.0049 33.2055 19.4319C30.1613 22.1803 27.1113 24.9221 24.0548 27.6568C23.8618 27.8295 23.5945 27.9191 23.2816 28.0917L23.2809 28.091Z" fill="#D95103"/>
<path d="M51.3466 39.1716C49.7966 39.1773 48.5632 37.9664 48.5473 36.4239C48.5307 34.8546 49.7648 33.591 51.3198 33.5838C52.8618 33.5765 54.143 34.8561 54.1357 36.3972C54.1278 37.9253 52.8813 39.1658 51.3473 39.1716H51.3466ZM51.3213 37.3039C51.8365 37.3097 52.2693 36.887 52.2671 36.3806C52.265 35.8806 51.8162 35.442 51.3169 35.4507C50.8256 35.4601 50.4267 35.8611 50.4144 36.3582C50.4014 36.8885 50.7938 37.2974 51.3213 37.3032V37.3039Z" fill="#D95103"/>
<path d="M28.9228 13.0475C27.3584 13.0396 26.1285 11.7868 26.1444 10.2168C26.1596 8.69739 27.4328 7.44675 28.9531 7.45759C30.5016 7.46843 31.743 8.74074 31.7285 10.3021C31.7141 11.8366 30.4691 13.0548 28.9228 13.0475ZM29.8643 10.2435C29.8549 9.73345 29.4119 9.31007 28.9076 9.32958C28.4191 9.34836 28.0145 9.76308 28.0087 10.25C28.0022 10.7673 28.417 11.1799 28.9415 11.1784C29.4676 11.177 29.8737 10.7652 29.8643 10.2435Z" fill="#D95103"/>
<path d="M20.5184 3.72231C19.4779 3.71364 18.6737 2.88132 18.6874 1.82792C18.7012 0.811371 19.5184 0.00289732 20.5351 7.33209e-06C21.5619 -0.00288265 22.4152 0.848941 22.4102 1.872C22.4051 2.8965 21.5517 3.7317 20.5184 3.72303V3.72231Z" fill="#D95103"/>
<path d="M51.3184 14.4519C51.3184 14.6152 51.3278 14.7799 51.317 14.9425C51.2794 15.4772 50.9167 15.842 50.4203 15.8536C49.934 15.8651 49.5272 15.5082 49.473 14.9844C49.4412 14.6788 49.4491 14.3667 49.4636 14.0589C49.4918 13.4571 49.8726 13.0647 50.4037 13.0669C50.9362 13.0691 51.2982 13.4636 51.3213 14.0705C51.3264 14.1976 51.3213 14.3248 51.3213 14.4519C51.3199 14.4519 51.3192 14.4519 51.3177 14.4519H51.3184Z" fill="#D95103"/>
<path d="M49.0316 2.81386C49.9572 2.80663 50.4161 3.12308 50.4002 3.74949C50.3843 4.373 49.9269 4.67573 48.9948 4.67212C48.7953 4.67212 48.5923 4.67573 48.3979 4.6396C47.9051 4.54929 47.5763 4.14325 47.6009 3.68446C47.6262 3.21267 47.9795 2.8601 48.4868 2.81602C48.6674 2.80013 48.8502 2.81386 49.0316 2.81386Z" fill="#D95103"/>
<path d="M54.5527 19.5836C54.4255 19.5836 54.2977 19.5886 54.1712 19.5829C53.6083 19.5554 53.2145 19.1869 53.2008 18.679C53.187 18.1559 53.5939 17.7542 54.1813 17.726C54.4537 17.713 54.7269 17.7138 54.9993 17.726C55.5867 17.7506 56.0001 18.1444 55.9972 18.6638C55.9943 19.1876 55.5853 19.5626 54.9884 19.585C54.8432 19.5901 54.6972 19.5857 54.552 19.585L54.5527 19.5836Z" fill="#D95103"/>
<path d="M51.3207 22.8535C51.3207 22.9987 51.3272 23.1446 51.3193 23.2898C51.2904 23.8548 50.9204 24.2471 50.4139 24.2565C49.9146 24.2659 49.5085 23.8772 49.4666 23.3224C49.4442 23.0334 49.4478 22.74 49.463 22.4503C49.4933 21.8586 49.8893 21.4504 50.4088 21.4569C50.9349 21.4634 51.299 21.8665 51.3214 22.472C51.3265 22.5991 51.3214 22.7263 51.3214 22.8535H51.3207Z" fill="#D95103"/>
<path d="M53.8503 14.4363C53.9811 14.5316 54.3388 14.6646 54.4508 14.9095C54.5729 15.1776 54.578 15.6103 54.4371 15.8603C54.2326 16.2237 53.8937 16.5626 53.531 16.7692C53.2817 16.9108 52.8373 16.9173 52.5851 16.7851C52.3532 16.663 52.1631 16.2851 52.1299 15.9998C52.067 15.4637 53.122 14.4536 53.8511 14.437L53.8503 14.4363Z" fill="#D95103"/>
<path d="M47.5898 1.39675C47.5898 1.56004 47.5999 1.72477 47.5876 1.88733C47.5486 2.41475 47.1736 2.78395 46.6793 2.79045C46.1872 2.79695 45.7869 2.43715 45.7407 1.91334C45.714 1.60628 45.7205 1.2956 45.7335 0.987098C45.7587 0.395373 46.1518 -0.00633506 46.68 0.0023349C47.2133 0.0110049 47.571 0.407656 47.5919 1.01528C47.5963 1.14243 47.5919 1.26959 47.5919 1.39675C47.5912 1.39675 47.5898 1.39675 47.589 1.39675H47.5898Z" fill="#D95103"/>
<path d="M47.5893 6.06928C47.5893 6.23256 47.6001 6.39729 47.5871 6.55986C47.546 7.09378 47.1803 7.44419 46.6731 7.44708C46.1723 7.44997 45.7858 7.10101 45.7395 6.57286C45.7142 6.28458 45.7236 5.99197 45.7323 5.70153C45.7518 5.05706 46.1181 4.6698 46.6868 4.68064C47.2352 4.69076 47.572 5.06429 47.5922 5.6878C47.5965 5.81496 47.5922 5.94212 47.5922 6.06928C47.5908 6.06928 47.59 6.06928 47.5886 6.06928H47.5893Z" fill="#D95103"/>
<path d="M44.2168 4.6867C44.0672 4.66574 43.7854 4.66863 43.5347 4.58049C43.1091 4.43165 42.9147 4.08702 42.9581 3.63908C43.0007 3.1904 43.2572 2.89057 43.7074 2.83421C44.0651 2.78942 44.4329 2.79664 44.7942 2.81398C45.3455 2.83927 45.7017 3.18751 45.7248 3.68531C45.748 4.18095 45.4163 4.56893 44.8823 4.65129C44.7038 4.67875 44.5203 4.67152 44.2161 4.68597L44.2168 4.6867Z" fill="#D95103"/>
<path d="M54.6024 22.1459C54.5091 22.2666 54.3682 22.6097 54.1204 22.7253C53.8682 22.8431 53.4491 22.8445 53.215 22.7066C52.8523 22.4934 52.5098 22.1618 52.3031 21.7984C52.1615 21.5484 52.1557 21.1026 52.2894 20.8497C52.4115 20.6178 52.7923 20.4256 53.0763 20.3967C53.6457 20.3404 54.6081 21.3786 54.6016 22.1452L54.6024 22.1459Z" fill="#D95103"/>
<path d="M47.9157 16.9425C47.1801 16.9316 46.1266 15.9187 46.1988 15.3761C46.2371 15.0907 46.4366 14.7295 46.6729 14.5951C46.9062 14.4621 47.3456 14.4621 47.5739 14.6009C47.9497 14.8292 48.2958 15.176 48.5227 15.5524C48.6607 15.7814 48.6469 16.2091 48.5227 16.4577C48.3984 16.7055 48.0508 16.8421 47.9164 16.9418L47.9157 16.9425Z" fill="#D95103"/>
</g>
<defs>
<clipPath id="clip0_2513_6095">
<rect width="56" height="56" fill="white"/>
</clipPath>
</defs>
</svg>
