<svg width="16" height="17" viewBox="0 0 16 17" fill="none" xmlns="http://www.w3.org/2000/svg">
<g clip-path="url(#clip0_2517_1411)">
<path d="M4.70325 0.0989239C3.85627 0.140566 3.27778 0.281882 2.77227 0.488214C2.24897 0.70072 1.80537 0.985509 1.36408 1.44706C0.92228 1.90889 0.650958 2.37179 0.448504 2.91744C0.252489 3.44536 0.119662 4.04824 0.0822604 4.93105C0.045126 5.81549 0.0366102 6.09758 0.0407495 8.34923C0.0448729 10.6006 0.0544124 10.8832 0.0949012 11.7679C0.135388 12.6499 0.270546 13.2523 0.468623 13.7791C0.672886 14.3242 0.946004 14.7861 1.38935 15.246C1.83245 15.706 2.27708 15.9883 2.80115 16.1995C3.30744 16.4034 3.88644 16.5423 4.73369 16.581C5.58273 16.62 5.85379 16.6285 8.01483 16.6242C10.1769 16.62 10.448 16.61 11.297 16.5681C12.144 16.5259 12.722 16.3846 13.228 16.1788C13.7513 15.9655 14.1949 15.6815 14.6362 15.2197C15.0775 14.7581 15.3488 14.295 15.5512 13.749C15.7473 13.2217 15.8806 12.6185 15.9175 11.7365C15.9546 10.8515 15.9634 10.5689 15.9593 8.31752C15.9551 6.06588 15.9453 5.78378 15.9051 4.89963C15.8649 4.01681 15.7292 3.41474 15.5314 2.88762C15.3269 2.34251 15.054 1.88095 14.6109 1.42074C14.1678 0.96106 13.7232 0.677887 13.1991 0.467529C12.6926 0.263345 12.1138 0.124176 11.2666 0.0860267C10.4175 0.0468028 10.1465 0.0382108 7.98465 0.0425077C5.82336 0.0468045 5.5523 0.0564795 4.70325 0.0989239ZM4.79611 15.0886C4.02005 15.0534 3.59863 14.9191 3.31776 14.8065C2.94585 14.6566 2.68046 14.4768 2.40114 14.188C2.12234 13.8981 1.94928 13.6225 1.80408 13.2359C1.69497 12.9433 1.5637 12.5049 1.52734 11.6965C1.48788 10.8225 1.47886 10.5603 1.47498 8.34627C1.47086 6.13278 1.47859 5.87056 1.51522 4.99581C1.54848 4.18794 1.67822 3.74841 1.78602 3.45611C1.92993 3.06816 2.10196 2.79224 2.37973 2.50129C2.65801 2.21033 2.92263 2.03059 3.29402 1.87934C3.57463 1.76515 3.99555 1.62948 4.77134 1.59107C5.61085 1.54969 5.8623 1.54083 7.98723 1.53653C10.1127 1.53222 10.3644 1.54002 11.2042 1.57844C11.9797 1.61363 12.4016 1.74743 12.682 1.86053C13.0541 2.01044 13.3195 2.1891 13.5986 2.47899C13.8777 2.76888 14.0507 3.04398 14.1959 3.43166C14.3055 3.72315 14.4358 4.16215 14.4724 4.97001C14.5124 5.8445 14.5214 6.10671 14.5253 8.32021C14.5294 10.5342 14.5217 10.7965 14.4848 11.6707C14.451 12.4791 14.3223 12.9183 14.214 13.2112C14.0701 13.5983 13.898 13.8748 13.62 14.1657C13.342 14.4556 13.0774 14.6364 12.7057 14.7877C12.4256 14.9016 12.0042 15.0375 11.2289 15.076C10.3894 15.1171 10.138 15.1265 8.01225 15.1305C5.88732 15.1348 5.63586 15.1265 4.79611 15.0886ZM11.2854 3.90101C11.2864 4.45016 11.7151 4.89479 12.2422 4.89372C12.7697 4.89264 13.1965 4.44639 13.1957 3.89725C13.1947 3.34811 12.7661 2.90321 12.2386 2.90429C11.7112 2.90536 11.2844 3.35187 11.2854 3.90101ZM3.91277 8.34143C3.91714 10.693 5.75063 12.5951 8.00761 12.5906C10.2648 12.586 12.0919 10.6766 12.0875 8.32505C12.0831 5.97427 10.2494 4.07107 7.99188 4.07564C5.73489 4.08021 3.90837 5.99039 3.91277 8.34143ZM5.34648 8.33848C5.3439 6.81222 6.52978 5.57235 7.99471 5.56966C9.45991 5.56671 10.6504 6.80147 10.6533 8.328C10.6561 9.85454 9.47022 11.0941 8.00477 11.0971C6.53984 11.1 5.34932 9.86501 5.34648 8.33848Z" fill="white"/>
</g>
<defs>
<clipPath id="clip0_2517_1411">
<rect width="16" height="16.6667" fill="white"/>
</clipPath>
</defs>
</svg>
