<svg width="16" height="20" viewBox="0 0 16 20" fill="none" xmlns="http://www.w3.org/2000/svg">
<path d="M13.6101 4.40808C12.6216 3.75257 11.9088 2.70328 11.686 1.48074C11.6382 1.21667 11.6115 0.944629 11.6115 0.666504H8.45721L8.45215 13.5277C8.39923 14.9679 7.23399 16.124 5.80597 16.124C5.36187 16.124 4.944 16.0111 4.57583 15.814C3.73181 15.3622 3.15426 14.4622 3.15426 13.4265C3.15426 11.939 4.34389 10.7286 5.8055 10.7286C6.07841 10.7286 6.34026 10.7745 6.58786 10.8532V7.57701C6.33152 7.54143 6.07104 7.51942 5.8055 7.51942C2.60431 7.51942 0 10.1691 0 13.4265C0 15.4249 0.98116 17.1934 2.47867 18.2628C3.42164 18.9366 4.56893 19.3332 5.80597 19.3332C9.00716 19.3332 11.6115 16.6835 11.6115 13.4265V6.90465C12.8485 7.80785 14.3644 8.34022 16 8.34022V5.13102C15.1192 5.13102 14.2986 4.8646 13.6101 4.40808Z" fill="white"/>
</svg>
