<svg width="202" height="6" viewBox="0 0 202 6" fill="none" xmlns="http://www.w3.org/2000/svg">
<g clip-path="url(#clip0_2513_6339)">
<path d="M201.86 3.59506C200 4.16506 198.3 4.06506 196.65 3.81506C195.74 3.67506 194.56 3.39507 193.98 3.68507C192.76 4.28507 191.92 3.59506 190.92 3.48506C190.04 3.39506 189.07 2.96507 188.32 3.92507C187.98 4.35507 187.68 4.16506 187.31 3.75506C186.33 2.66506 186.28 2.69506 185.17 3.55506C185.1 3.58506 185.03 3.61507 184.95 3.64507C184.98 3.57507 185.01 3.50507 185.04 3.43507C184.8 3.22507 184.64 3.38506 184.4 3.50506C183 4.18506 182.83 4.08507 182.76 2.48506C182.38 2.88506 182.37 3.45506 181.83 3.77506C181.19 3.59506 181.19 2.71506 180.5 2.54506C180.03 2.99506 179.73 4.21507 178.73 2.94507C178.43 2.56507 178.19 2.91507 178.04 3.12507C177.87 3.35507 177.79 3.64507 177.69 3.92507C177.3 4.96507 176.95 4.25507 176.59 3.90507C176.55 3.93507 176.52 3.96506 176.48 3.97506C176.47 3.97506 176.42 3.92507 176.42 3.92507C176.44 3.88507 176.47 3.85506 176.5 3.82506C176.66 3.36506 177.18 2.87506 176.36 2.50506C175.67 2.19506 175.08 2.08507 174.73 2.94507C174.51 3.47506 174.21 3.52506 173.59 3.27506C172.83 2.96506 171.85 3.44507 171.08 2.87507C170.92 3.20507 170.74 3.49506 170.29 3.26506C170.2 3.22506 170.1 3.05506 170.12 2.99506C170.27 2.69506 170.62 2.75507 170.88 2.66507C170.88 2.52507 170.88 2.37506 170.9 2.23506C170.43 2.33506 169.95 2.43506 169.48 2.54506C168.493 2.79173 167.883 2.40173 167.65 1.37506L167.72 1.26506L167.62 1.34506C167.49 1.34506 167.37 1.34506 167.24 1.34506L167.15 1.26506L167.21 1.37506C166.98 2.87506 166.09 3.23507 164.65 2.42507L164.74 2.33506L164.62 2.39506C163.82 2.60506 163.25 3.26506 162.3 3.23506C161.39 3.20506 161 2.87506 160.92 2.07506C161.49 1.97506 161.96 1.66506 162.34 1.30506C162.69 0.975065 162.86 0.495065 163.4 1.10506C163.56 1.28506 163.83 1.08506 164.06 0.995065C165.87 0.205065 167.69 0.245065 169.5 0.985065C169.66 1.04506 169.79 1.27506 169.96 1.08506C171.02 -0.094935 170.98 1.36506 171.43 1.63506C171.79 1.63506 172.17 1.65506 172.58 1.38506C172.31 0.915065 171.43 1.64506 171.52 0.675065C172.33 0.445065 173.32 0.435065 174.16 0.705065C175.07 0.995065 175.92 0.895065 176.79 0.825065C178.16 0.715065 179.55 0.125065 180.84 1.10506C180.95 1.19506 181.02 1.10506 181.13 1.03506C181.92 0.515065 182.64 0.785065 183.31 1.26506C183.52 1.41506 183.64 1.54506 183.93 1.43506C185.1 1.00506 187.46 0.855065 188.98 1.19506C191.69 1.79506 194.42 2.25506 197.2 2.10506C197.81 2.07506 197.68 3.05507 198.32 2.66507C198.71 2.42507 199.11 2.31506 199.55 2.38506C200.4 2.50506 201.17 2.77506 201.88 3.59506H201.86ZM179.81 1.53506C179.81 1.53506 179.72 1.43506 179.68 1.43506C179.39 1.40506 179.12 1.13506 178.82 1.38506C178.79 1.41506 178.81 1.49506 178.8 1.54506C179.1 1.56506 179.4 1.59506 179.7 1.61506C179.73 1.61506 179.77 1.56506 179.81 1.53506ZM183.65 3.27506L183.54 3.31506L183.65 3.36507V3.27506Z" fill="#0C6967"/>
<path d="M160.62 0.935057C160.54 0.905057 160.45 0.865057 160.37 0.835057C160.4 0.915057 160.44 0.995057 160.47 1.07506C159.83 1.29506 159.08 2.05506 158.56 1.13506C158.2 0.495057 157.81 0.535057 157.24 0.555057C156.44 0.585057 155.63 0.555057 154.83 0.505057C154.45 0.475057 153.98 0.395057 153.81 0.725057C153.43 1.50506 153.11 1.07506 152.75 0.755057C152.36 0.405057 151.98 0.265057 151.42 0.495057C150.84 0.735057 150.18 2.27506 149.52 0.495057C149.44 0.285057 149.02 1.11506 148.73 0.885057C148.08 0.355057 147.6 -0.174943 147.24 1.09506C147.17 1.35506 146.62 1.34506 146.4 1.17506C145.78 0.685057 145.23 0.0950568 144.69 1.24506C144.67 1.28506 144.32 1.24506 144.19 1.16506C143.13 0.445057 143.1 0.395057 142.31 0.935057C141.69 1.35506 141.31 1.49506 140.9 0.685057C140.57 0.0250567 139.86 0.205057 139.27 0.425057C139.1 0.485057 139.02 0.715057 139.2 0.855057C139.33 0.945057 139.53 0.945057 139.71 0.995057L139.81 0.925057L139.75 1.02506C139.49 1.31506 138.88 1.45506 139.1 1.97506C139.29 2.41506 139.61 2.51506 140.24 2.49506C141.19 2.46506 142.16 2.43506 143.12 2.45506C144.97 2.48506 146.82 2.47506 148.67 2.52506C149.35 2.54506 150.04 3.32506 150.69 2.31506C150.91 1.97506 151.51 2.24506 151.79 2.61506C152.18 3.13506 152.45 3.14506 152.92 2.63506C153.48 2.02506 154.13 1.93506 155.05 2.25506C155.66 2.46506 156.37 2.85506 157.1 2.73506C158.37 2.53506 159.64 2.30506 160.91 2.08506C160.95 1.67506 161.02 1.25506 160.61 0.945057L160.62 0.935057Z" fill="#0C6967"/>
<path d="M105.171 1.67503C105.121 1.67503 105.061 1.66503 105.011 1.65503C105.041 1.68503 105.071 1.71503 105.091 1.75503C104.391 2.08503 103.611 2.77503 103.011 2.65503C102.001 2.45503 101.231 2.81503 100.371 3.01503C100.271 2.56503 100.991 2.56503 100.971 2.18503C100.021 1.70503 99.3608 2.79503 98.6908 2.57503C96.8108 1.97503 94.9408 3.15503 93.0908 2.44503C92.8708 2.36503 92.6408 2.56503 92.4908 2.77503L92.5808 2.87503L92.4708 2.79503C92.2308 2.85503 91.8508 3.02503 91.7908 2.95503C91.1208 2.15503 90.2808 2.34503 89.4608 2.56503C88.7708 2.75503 88.1408 2.69503 87.4708 2.48503C87.0108 2.33503 86.2208 2.17503 86.1108 2.56503C85.8608 3.47503 85.4408 3.06503 84.9708 2.89503C84.6308 2.77503 84.2708 2.62503 83.9208 2.61503C82.6108 2.55503 81.3208 3.12503 79.9908 2.70503C79.8008 2.64503 79.5508 2.87503 79.4808 3.13503C79.6008 3.24503 79.7108 3.35503 79.8308 3.46503L79.9008 3.56503L79.7908 3.50503C79.6808 3.38503 79.5708 3.27503 79.4608 3.15503C79.0908 2.96503 78.7308 2.55503 78.3508 3.13503L78.4408 3.23503L78.3408 3.14503C77.5708 2.73503 76.8708 2.55503 75.9208 2.88503C74.8408 3.25503 73.6208 3.56503 72.4408 2.93503C72.1608 2.78503 71.8408 2.82503 71.6008 3.07503C69.5208 3.09503 67.4708 3.49503 65.3708 3.30503C64.8208 3.25503 64.1908 3.13503 63.5708 3.24503C61.4708 3.60503 59.3708 3.67503 57.2308 3.48503C56.1408 3.38503 55.0308 3.40503 53.9208 3.69503C52.8208 3.98503 51.5808 4.25503 50.4908 4.06503C48.0908 3.63503 45.7608 4.10503 43.4008 4.23503C42.7808 4.26503 42.2008 4.10503 41.5708 4.19503C39.4508 4.47503 37.3008 4.46503 35.1708 4.40503C33.7708 4.36503 32.3708 4.35503 30.9908 4.28503C29.9108 4.23503 28.9508 4.62503 27.9208 4.57503C25.8108 4.47503 23.7008 4.35503 21.5808 4.31503C19.4608 4.27503 17.3308 4.42503 15.2108 4.31503C10.7208 4.08503 6.24079 3.73503 1.76079 3.45503C1.34079 3.42503 0.890795 3.47503 0.480795 3.57503C0.180795 3.62503 -0.0392055 3.86503 0.000794523 4.21503C0.0407945 4.51503 0.310795 4.54503 0.540795 4.59503C0.720795 4.63503 0.910795 4.61503 1.09079 4.63503C4.40079 4.92503 7.72079 5.19503 11.0308 5.49503C13.6708 5.73503 16.3208 5.75503 18.9608 5.66503C21.6608 5.57503 24.3708 5.50503 27.0508 5.55503C30.1108 5.61503 33.1608 5.52503 36.2108 5.49503C40.0308 5.46503 43.8608 5.49503 47.6708 5.28503C49.9808 5.15503 52.3708 5.85503 54.6108 4.79503C54.8508 4.68503 55.0908 4.75503 55.3308 4.83503C56.0008 5.04503 56.6808 4.85503 57.3408 4.88503C59.6908 4.98503 61.9908 4.02503 64.4108 4.75503C65.2908 5.02503 66.5108 4.85503 67.4108 4.18503C68.4308 4.84503 69.5308 4.61503 70.6308 4.45503C71.3408 4.35503 71.7608 4.01503 71.7408 3.29503C72.5208 4.58503 73.6608 4.84503 75.1208 4.52503C78.0008 3.89503 81.0308 4.76503 83.8908 3.79503C85.5108 4.41503 87.1608 3.99503 88.8108 3.94503C90.9508 3.87503 93.0908 3.88503 95.2408 3.83503C96.2708 3.81503 97.2708 3.62503 98.3308 3.83503C98.9108 3.94503 99.8508 4.12503 100.241 3.24503C100.491 3.58503 100.731 3.91503 101.261 3.84503C102.701 3.66503 104.151 3.46503 105.591 3.84503C105.831 3.90503 106.211 3.78503 106.171 3.57503C106.071 3.00503 106.111 2.50503 106.321 1.94503C106.391 1.76503 105.591 1.73503 105.171 1.70503V1.67503Z" fill="#0C6967"/>
<path d="M125.351 0.64511C124.041 0.99511 122.631 0.99511 121.411 1.64511C121.051 1.78511 120.661 2.16511 120.401 1.53511C120.241 1.16511 119.971 1.21511 119.671 1.31511C119.581 1.19511 119.511 1.17511 119.491 1.28511C119.491 1.31511 119.551 1.35511 119.591 1.39511C119.231 1.70511 118.881 1.68511 118.541 1.37511C118.691 1.30511 118.711 1.25511 118.601 1.23511C118.581 1.23511 118.541 1.30511 118.511 1.34511C118.011 1.32511 117.511 1.29511 117.331 1.89511C117.241 2.21511 116.961 2.33511 116.681 2.45511L116.561 2.52511L116.651 2.43511C116.651 2.31511 116.651 2.19511 116.661 2.08511C116.681 2.04511 116.701 2.01511 116.721 1.97511C116.701 2.00511 116.671 2.04511 116.651 2.07511C115.511 1.59511 114.451 1.43511 113.731 2.71511C113.101 2.33511 112.481 1.95511 111.851 1.59511C111.341 1.30511 110.751 1.15511 110.361 1.69511C109.801 2.45511 109.181 2.36511 108.411 2.06511C108.141 1.95511 107.731 1.68511 107.381 2.23511C107.861 2.68511 107.981 3.76511 108.751 3.62511C110.361 3.33511 112.081 3.75511 113.601 2.94511C113.641 3.11511 113.731 3.32511 113.921 3.30511C115.071 3.19511 116.211 3.24511 117.371 3.34511C118.051 3.40511 119.001 3.49511 119.541 2.79511C119.781 2.48511 119.841 2.52511 120.181 2.67511C121.351 3.20511 121.371 3.17511 121.571 1.80511C122.211 2.74511 122.171 2.67511 123.221 2.05511C123.641 1.80511 124.701 0.91511 124.571 2.53511C124.571 2.59511 124.731 2.71511 124.831 2.74511C125.371 2.89511 125.741 2.31511 126.311 2.37511C126.421 2.38511 126.421 1.61511 126.331 1.22511C126.221 0.73511 125.761 0.53511 125.341 0.64511H125.351Z" fill="#0C6967"/>
<path d="M137.15 0.605039C136.76 0.965039 136.39 1.34504 136.01 1.71504C136.35 0.385039 136.12 0.0850393 134.84 0.295039C134.48 0.355039 133.94 0.445039 133.84 0.665039C133.49 1.42504 133 1.10504 132.47 0.985039C131.81 0.835039 131.13 0.785039 130.49 0.615039C129.81 0.425039 129.39 0.345039 129.64 1.26504C129.67 1.37504 129.25 2.01504 128.67 1.85504C128.38 1.77504 128.02 1.61504 127.97 2.07504C127.93 2.43504 128.31 2.54504 128.59 2.62504C128.88 2.70504 129.22 2.79504 129.49 2.72504C130.28 2.51504 131.32 3.25504 131.79 2.61504C132.63 1.47504 133.18 2.57504 133.85 2.61504C134.04 2.62504 134.24 2.36504 134.45 2.23504C134.92 1.94504 135.41 1.69504 136 1.72504C135.47 2.60504 136.45 2.24504 136.7 2.47504C137.43 3.13504 137.53 2.21504 137.93 2.00504C138.46 1.72504 138.52 1.34504 138.28 0.845039C138.01 0.305039 137.65 0.155039 137.16 0.595039L137.15 0.605039Z" fill="#0C6967"/>
<path d="M147.531 3.63506C147.321 3.71506 147.071 3.83506 147.061 4.09506C147.061 4.36506 147.291 4.49506 147.521 4.55506C147.751 4.61506 148.001 4.59506 148.241 4.61506C148.301 4.61506 148.361 4.61506 148.421 4.61506C148.391 4.57506 148.371 4.54506 148.341 4.50506C148.661 4.06506 149.451 4.47506 149.731 3.69506C148.961 3.57506 148.261 3.35506 147.521 3.62506L147.531 3.63506Z" fill="#0C6967"/>
<path d="M179.98 3.95499C179.32 4.20499 178.69 4.49499 178.49 5.36499C179.16 5.18499 179.72 5.04499 180.26 4.87499C180.61 4.76499 180.68 4.46499 180.57 4.17499C180.48 3.94499 180.24 3.85499 179.98 3.95499Z" fill="#0C6967"/>
<path d="M139.69 3.41506C139.37 3.46506 139.03 3.56506 139.07 3.92506C139.1 4.26506 139.42 4.38506 139.76 4.31506C140.14 4.24506 140.47 4.09506 140.45 3.62506C140.31 3.20506 139.98 3.36506 139.69 3.40506V3.41506Z" fill="#0C6967"/>
<path d="M182.899 4.58505C182.729 4.61505 182.549 4.76505 182.639 4.96505C182.819 5.37505 183.229 5.26505 183.579 5.30505C183.679 5.42505 183.749 5.43505 183.769 5.32505C183.769 5.29505 183.709 5.25505 183.669 5.21505C183.799 4.98505 184.299 4.85505 184.049 4.52505C183.709 4.08505 183.279 4.50505 182.899 4.57505V4.58505Z" fill="#0C6967"/>
<path d="M181.639 4.34501C181.329 4.53501 181.099 4.81501 181.149 5.19501C181.169 5.38501 181.379 5.51501 181.539 5.42501C181.859 5.23501 181.999 4.91501 182.029 4.56501C181.969 4.36501 181.809 4.23501 181.639 4.33501V4.34501Z" fill="#0C6967"/>
<path d="M172.49 4.00523C171.94 4.04523 172.28 4.57523 172.1 4.83523C171.89 5.13523 172.08 5.28523 172.39 5.21523C172.75 5.14523 172.83 4.85523 172.81 4.52523C172.76 4.32523 172.81 3.97523 172.48 4.00523H172.49Z" fill="#0C6967"/>
<path d="M186.07 4.5351C185.92 4.6851 185.87 4.9251 185.78 5.1151C185.48 5.1851 185.29 4.3151 185.06 4.9251C184.89 5.3651 185.3 5.8051 185.92 5.3251C186.08 5.2451 186.23 5.1451 186.39 5.1051C186.66 5.0351 187.05 5.0251 186.82 4.6151C186.66 4.3351 186.33 4.2851 186.08 4.5251L186.07 4.5351Z" fill="#0C6967"/>
<path d="M168.221 3.89502C168.021 3.93502 167.871 4.02502 167.981 4.24502C168.031 4.33502 168.161 4.42502 168.271 4.43502C168.471 4.46502 168.631 4.36502 168.621 4.15502C168.601 3.95502 168.421 3.89502 168.231 3.89502H168.221Z" fill="#0C6967"/>
<path d="M130.949 3.49511C130.779 3.53511 130.579 3.59511 130.679 3.80511C130.739 3.93511 130.899 4.07511 131.039 4.10511C131.209 4.14511 131.379 4.02511 131.399 3.83511C131.439 3.51511 131.179 3.50511 130.939 3.48511L130.949 3.49511Z" fill="#0C6967"/>
<path d="M162.48 3.63516C162.27 3.58516 162.14 3.72516 162.17 3.93516C162.2 4.12516 162.38 4.18516 162.56 4.20516C162.76 4.20516 162.95 4.12516 162.87 3.91516C162.82 3.79516 162.63 3.67516 162.48 3.63516Z" fill="#0C6967"/>
<path d="M123.57 2.34515C123.48 2.52515 123.56 2.67515 123.78 2.66515C123.86 2.66515 123.93 2.54515 124.01 2.47515C123.96 2.38515 123.92 2.23515 123.86 2.22515C123.77 2.20515 123.61 2.27515 123.57 2.34515Z" fill="#0C6967"/>
<path d="M117.471 4.02505C117.471 4.02505 117.391 4.10505 117.351 4.15505C117.201 4.22505 117.041 4.28505 116.891 4.35505C116.931 4.39505 116.981 4.47505 116.991 4.47505C117.141 4.41505 117.291 4.33505 117.441 4.26505C117.711 4.34505 118.001 4.51505 118.221 4.18505C118.251 4.13505 118.181 3.95505 118.111 3.92505C117.881 3.81505 117.661 3.88505 117.471 4.03505V4.02505Z" fill="#0C6967"/>
<path d="M128.951 3.98511C128.871 4.04511 128.731 4.08511 128.711 4.16511C128.691 4.24511 128.761 4.41511 128.821 4.43511C129.011 4.48511 129.161 4.38511 129.151 4.18511C129.151 4.11511 129.021 4.05511 128.941 3.99511L128.951 3.98511Z" fill="#0C6967"/>
<path d="M127.06 0.555147C126.95 0.465147 126.82 0.515147 126.8 0.645147C126.79 0.735147 126.85 0.875147 126.92 0.905147C126.98 0.935147 127.11 0.855147 127.2 0.815147C127.15 0.725147 127.13 0.605147 127.06 0.545147V0.555147Z" fill="#0C6967"/>
<path d="M188.8 5.39502C188.73 5.47502 188.6 5.54502 188.6 5.62502C188.6 5.77502 188.71 5.81502 188.85 5.72502C188.9 5.69502 188.94 5.64502 188.96 5.59502C189.01 5.46502 188.96 5.39502 188.8 5.39502Z" fill="#0C6967"/>
<path d="M143.369 3.54517C143.259 3.54517 143.109 3.54517 143.059 3.61517C142.979 3.70517 143.069 3.79517 143.219 3.81517C143.309 3.76517 143.399 3.70517 143.489 3.65517C143.449 3.61517 143.409 3.54517 143.369 3.54517Z" fill="#0C6967"/>
<path d="M136.99 3.4852C136.88 3.5952 136.92 3.7352 137.07 3.7552C137.17 3.7652 137.28 3.6752 137.39 3.6352C137.36 3.5352 137.33 3.4252 137.3 3.3252C137.2 3.3752 137.07 3.4052 136.99 3.4852Z" fill="#0C6967"/>
<path d="M191.14 4.8251C191.05 4.8451 190.98 4.9551 190.9 5.0251C191.01 5.0751 191.09 5.1351 191.19 5.1551C191.21 5.1551 191.29 5.0851 191.3 5.0351C191.34 4.9051 191.27 4.7951 191.14 4.8151V4.8251Z" fill="#0C6967"/>
<path d="M127.189 2.11519C127.109 2.32519 127.089 2.55519 127.049 2.77519C127.019 2.80519 126.979 2.83519 126.949 2.85519C126.969 2.87519 126.989 2.88519 126.999 2.90519C127.029 2.87519 127.059 2.84519 127.089 2.81519C127.309 2.67519 127.449 2.49519 127.409 2.24519C127.389 2.10519 127.219 2.04519 127.189 2.12519V2.11519Z" fill="#0C6967"/>
<path d="M154.151 4.01506C154.151 4.01506 154.211 4.08506 154.241 4.08506C154.281 4.08506 154.321 4.05506 154.351 4.03506C154.291 3.93506 154.221 3.92506 154.141 4.01506H154.151Z" fill="#0C6967"/>
<path d="M155.821 3.85512C155.821 3.85512 155.871 3.94512 155.891 3.98512C155.921 3.94512 155.961 3.91512 155.991 3.87512C155.961 3.83512 155.941 3.78512 155.911 3.74512C155.881 3.78512 155.821 3.81512 155.811 3.85512H155.821Z" fill="#0C6967"/>
<path d="M142.049 3.80505C142.049 3.80505 142.069 3.91505 142.099 3.94505C142.109 3.96505 142.189 3.92505 142.229 3.91505C142.209 3.86505 142.209 3.80505 142.179 3.77505C142.159 3.75505 142.089 3.79505 142.039 3.80505H142.049Z" fill="#0C6967"/>
<path d="M135.01 3.87513L135.14 3.89513L135.09 3.75513L135.01 3.87513Z" fill="#0C6967"/>
<path d="M126.729 3.60498C126.729 3.60498 126.649 3.64498 126.609 3.66498C126.639 3.69498 126.669 3.72498 126.709 3.74498C126.749 3.72498 126.789 3.70498 126.829 3.68498C126.799 3.65498 126.769 3.61498 126.729 3.60498Z" fill="#0C6967"/>
<path d="M125.66 3.76504C125.69 3.85504 125.74 3.93504 125.78 4.01504C125.82 3.98504 125.9 3.93504 125.9 3.91504C125.87 3.82504 125.82 3.74504 125.78 3.66504C125.74 3.69504 125.66 3.74504 125.67 3.76504H125.66Z" fill="#0C6967"/>
<path d="M107.281 3.21508C107.151 3.29508 107.161 3.38508 107.321 3.42508C107.361 3.43508 107.421 3.39508 107.471 3.37508C107.471 3.33508 107.471 3.26508 107.441 3.24508C107.401 3.21508 107.321 3.19508 107.281 3.21508Z" fill="#0C6967"/>
<path d="M179.82 5.47498C179.82 5.47498 179.92 5.50498 179.96 5.52498C179.97 5.48498 180.01 5.42498 180 5.40498C179.97 5.37498 179.91 5.36498 179.86 5.35498C179.85 5.39498 179.83 5.43498 179.82 5.47498Z" fill="#0C6967"/>
<path d="M165.35 4.17518C165.35 4.17518 165.27 4.24518 165.24 4.27518C165.26 4.29518 165.29 4.32518 165.31 4.34518C165.35 4.30518 165.38 4.27518 165.42 4.23518C165.46 4.19518 165.5 4.16518 165.54 4.12518C165.51 4.10518 165.49 4.07518 165.46 4.05518C165.42 4.09518 165.39 4.13518 165.35 4.17518Z" fill="#0C6967"/>
<path d="M123.199 4.04517C123.239 4.10517 123.289 4.17517 123.329 4.23517C123.379 4.23517 123.429 4.25517 123.479 4.26517C123.449 4.23517 123.419 4.20517 123.389 4.17517C123.319 4.13517 123.249 4.09517 123.189 4.04517H123.199Z" fill="#0C6967"/>
<path d="M175.501 4.07513C175.501 4.07513 175.421 4.12513 175.381 4.14513C175.021 4.05513 174.721 3.62513 174.211 4.05513C174.621 4.40513 174.951 4.80513 175.481 4.23513C175.511 4.19513 175.541 4.16513 175.561 4.12513C175.561 4.11513 175.511 4.06513 175.501 4.06513V4.07513Z" fill="#0C6967"/>
</g>
<defs>
<clipPath id="clip0_2513_6339">
<rect width="201.86" height="5.55" fill="white" transform="translate(0 0.225098)"/>
</clipPath>
</defs>
</svg>
