<svg width="40" height="40" viewBox="0 0 40 40" fill="none" xmlns="http://www.w3.org/2000/svg">
<rect width="40" height="40" rx="20" fill="#A6AEBB"/>
<path d="M27.0127 13.0103C25.777 12.191 24.886 10.8793 24.6075 9.35117C24.5477 9.02108 24.5143 8.68103 24.5143 8.33337H20.5715L20.5652 24.4098C20.499 26.2101 19.0425 27.6552 17.2575 27.6552C16.7023 27.6552 16.18 27.5141 15.7198 27.2677C14.6648 26.703 13.9428 25.578 13.9428 24.2834C13.9428 22.424 15.4299 20.911 17.2569 20.911C17.598 20.911 17.9253 20.9684 18.2348 21.0667V16.9715C17.9144 16.927 17.5888 16.8995 17.2569 16.8995C13.2554 16.8995 10 20.2116 10 24.2834C10 26.7814 11.2265 28.992 13.0983 30.3288C14.277 31.171 15.7112 31.6667 17.2575 31.6667C21.259 31.6667 24.5143 28.3546 24.5143 24.2834V16.1311C26.0606 17.2601 27.9555 17.9255 30 17.9255V13.914C28.899 13.914 27.8733 13.581 27.0127 13.0103Z" fill="white"/>
</svg>
