<svg width="40" height="40" viewBox="0 0 40 40" fill="none" xmlns="http://www.w3.org/2000/svg">
<rect width="40" height="40" rx="20" fill="#A6AEBB"/>
<g clip-path="url(#clip0_2510_1347)">
<path d="M27.8991 15.857C27.9112 16.0343 27.9112 16.2115 27.9112 16.3905C27.9112 21.8423 23.8144 28.1298 16.3233 28.1298V28.1266C14.1104 28.1298 11.9435 27.4877 10.0806 26.2769C10.4023 26.3161 10.7257 26.3357 11.0499 26.3365C12.8838 26.3382 14.6652 25.7148 16.108 24.5669C14.3652 24.5334 12.837 23.3823 12.3031 21.7017C12.9136 21.821 13.5427 21.7965 14.1419 21.6307C12.2419 21.2418 10.8749 19.5506 10.8749 17.5865C10.8749 17.5686 10.8749 17.5514 10.8749 17.5343C11.4411 17.8537 12.0749 18.031 12.7233 18.0506C10.9338 16.839 10.3822 14.4272 11.4628 12.5416C13.5306 15.1192 16.5814 16.6862 19.8564 16.8521C19.5281 15.4191 19.9765 13.9174 21.0346 12.9101C22.6749 11.348 25.2548 11.428 26.7967 13.089C27.7088 12.9068 28.583 12.5677 29.383 12.0874C29.079 13.0424 28.4427 13.8537 27.5927 14.3692C28.3999 14.2728 29.1886 14.0539 29.9314 13.7197C29.3846 14.5498 28.6959 15.2728 27.8991 15.857Z" fill="white"/>
</g>
<defs>
<clipPath id="clip0_2510_1347">
<rect width="20" height="16.6667" fill="white" transform="translate(10 11.6666)"/>
</clipPath>
</defs>
</svg>
