<svg width="40" height="40" viewBox="0 0 40 40" fill="none" xmlns="http://www.w3.org/2000/svg">
<rect width="40" height="40" rx="20" fill="#A6AEBB"/>
<g clip-path="url(#clip0_2510_1352)">
<path d="M30.3806 14.8423C30.1315 13.9203 29.3974 13.1942 28.4651 12.9478C26.7755 12.5 20.0001 12.5 20.0001 12.5C20.0001 12.5 13.2247 12.5 11.535 12.9478C10.6029 13.1942 9.86864 13.9203 9.6195 14.8423C9.16675 16.5134 9.16675 20 9.16675 20C9.16675 20 9.16675 23.4866 9.6195 25.1578C9.86864 26.0797 10.6029 26.8058 11.535 27.0523C13.2247 27.5 20.0001 27.5 20.0001 27.5C20.0001 27.5 26.7755 27.5 28.4651 27.0523C29.3974 26.8058 30.1315 26.0797 30.3806 25.1578C30.8334 23.4866 30.8334 20 30.8334 20C30.8334 20 30.8334 16.5134 30.3806 14.8423Z" fill="white"/>
<path d="M17.7842 23.1655L23.4471 20.0001L17.7842 16.8344V23.1655Z" fill="#A6AEBB"/>
</g>
<defs>
<clipPath id="clip0_2510_1352">
<rect width="21.6667" height="15" fill="white" transform="translate(9.16675 12.5)"/>
</clipPath>
</defs>
</svg>
